<?xml version="1.0" encoding="UTF-8"?>
<!DOCTYPE svg PUBLIC "-//W3C//DTD SVG 1.1//EN" "http://www.w3.org/Graphics/SVG/1.1/DTD/svg11.dtd">
<svg xmlns="http://www.w3.org/2000/svg" version="1.1" width="800px" height="800px" style="shape-rendering:geometricPrecision; text-rendering:geometricPrecision; image-rendering:optimizeQuality; fill-rule:evenodd; clip-rule:evenodd" xmlns:xlink="http://www.w3.org/1999/xlink">
<g><path style="opacity:1" fill="#222021" d="M -0.5,-0.5 C 47.5,-0.5 95.5,-0.5 143.5,-0.5C 143.063,1.07442 142.063,2.24109 140.5,3C 135.699,3.37827 131.032,4.37827 126.5,6C 123.405,8.42574 121.072,11.4257 119.5,15C 119.957,15.414 120.291,15.914 120.5,16.5C 117.612,20.1405 116.612,24.1405 117.5,28.5C 116.08,34.678 114.746,40.8446 113.5,47C 114.022,47.5613 114.355,48.228 114.5,49C 111.662,65.0306 108.329,81.0306 104.5,97C 104.833,98 105.167,99 105.5,100C 103.456,105.34 101.956,110.84 101,116.5C 100.207,123.772 99.0406,130.939 97.5,138C 98.0219,138.561 98.3552,139.228 98.5,140C 96.5532,144.464 95.8866,148.964 96.5,153.5C 94.0353,159.781 92.3686,166.281 91.5,173C 93.6492,177.742 92.3158,181.075 87.5,183C 88.6582,184.009 89.3248,185.342 89.5,187C 88.7626,189.441 88.7626,191.775 89.5,194C 88.2986,194.903 87.4652,196.069 87,197.5C 87.0211,201.009 86.1878,204.175 84.5,207C 85.5585,211.098 85.5585,215.265 84.5,219.5C 83.4608,224.334 82.1275,229.001 80.5,233.5C 75.2233,271.204 68.5566,308.537 60.5,345.5C 61.1055,349.709 60.4389,353.875 58.5,358C 58.6448,358.772 58.9781,359.439 59.5,360C 57.9963,361.491 57.1629,363.324 57,365.5C 56.3007,373.269 54.9673,380.935 53,388.5C 52.2073,392.423 52.374,396.256 53.5,400C 50.2129,400.88 49.5462,402.713 51.5,405.5C 50.3608,413.357 48.6941,421.024 46.5,428.5C 47.936,430.873 47.6027,432.873 45.5,434.5C 45.8333,435.167 46.1667,435.833 46.5,436.5C 44.108,444.568 42.108,452.735 40.5,461C 39.5819,464.748 39.5819,468.748 40.5,473C 37.1327,481.122 35.2993,489.622 35,498.5C 33.7048,502.65 32.5381,506.816 31.5,511C 32.8984,514.03 33.565,517.03 33.5,520C 32.7362,522.069 32.2362,524.236 32,526.5C 31.6667,524.167 31.3333,521.833 31,519.5C 30.2228,522.429 30.3895,525.263 31.5,528C 30.5838,528.374 29.7504,528.874 29,529.5C 28.7435,532.557 28.2435,535.557 27.5,538.5C 28.2561,540.451 28.5894,542.284 28.5,544C 28,544.5 27.5,545 27,545.5C 24.9983,554.848 22.9983,564.181 21,573.5C 20.3035,577.535 20.4701,581.535 21.5,585.5C 20.935,587.405 19.935,589.071 18.5,590.5C 19.0253,591.192 19.6919,591.692 20.5,592C 19.4844,592.519 18.8178,593.353 18.5,594.5C 17.7567,600.841 16.9234,607.174 16,613.5C 13.9045,614.715 14.0712,615.549 16.5,616C 15.7894,617.255 14.956,618.421 14,619.5C 13.7181,623.039 13.2181,626.539 12.5,630C 12.6448,630.772 12.9781,631.439 13.5,632C 11.7295,636.317 10.5629,640.817 10,645.5C 7.73561,661.459 5.73561,677.459 4,693.5C 3.20792,695.644 1.70792,696.977 -0.5,697.5C -0.5,464.833 -0.5,232.167 -0.5,-0.5 Z"/></g>
<g><path style="opacity:1" fill="#1c1b1c" d="M 143.5,-0.5 C 244.833,-0.5 346.167,-0.5 447.5,-0.5C 458.993,0.330658 470.659,0.830658 482.5,1C 490.946,2.49958 499.446,3.99958 508,5.5C 509.107,5.41476 510.107,5.08142 511,4.5C 520.131,6.16864 529.465,7.50197 539,8.5C 540,8.16667 541,7.83333 542,7.5C 551.375,7.96812 560.542,9.63478 569.5,12.5C 571.104,12.0609 572.604,11.3943 574,10.5C 579.904,12.4856 585.737,14.6523 591.5,17C 598.214,16.8453 604.547,18.1786 610.5,21C 615.578,21.7576 620.578,22.7576 625.5,24C 625.167,24.3333 624.833,24.6667 624.5,25C 631.262,25.8408 637.595,27.8408 643.5,31C 640.456,31.3589 640.122,32.0255 642.5,33C 644.567,33.5356 646.401,33.0356 648,31.5C 658.685,36.9897 669.519,42.323 680.5,47.5C 683.524,49.0134 686.191,51.0134 688.5,53.5C 692.226,54.8485 695.892,56.3485 699.5,58C 703.305,62.4619 707.972,65.7953 713.5,68C 713.833,69 714.167,70 714.5,71C 719.508,73.1644 723.841,76.3311 727.5,80.5C 728.325,81.3857 729.325,81.719 730.5,81.5C 730.351,82.552 730.517,83.552 731,84.5C 733.982,87.5195 737.815,90.3529 742.5,93C 744.487,94.3189 745.654,96.1523 746,98.5C 746.667,99.8333 747.333,99.8333 748,98.5C 753.681,105.039 758.348,111.706 762,118.5C 763.892,119.13 765.559,120.13 767,121.5C 767.346,123.848 768.513,125.681 770.5,127C 770.167,127.333 769.833,127.667 769.5,128C 772.927,131.133 774.927,134.967 775.5,139.5C 777.201,139.966 778.701,139.966 780,139.5C 780.651,141.235 780.485,142.902 779.5,144.5C 780.761,146.453 781.927,148.453 783,150.5C 784.263,158.923 786.43,167.09 789.5,175C 788.572,175.388 787.905,176.055 787.5,177C 788.836,179.035 790.17,181.035 791.5,183C 790.946,185.612 791.613,188.112 793.5,190.5C 792.948,192.003 792.948,193.669 793.5,195.5C 795.621,195.675 797.621,195.341 799.5,194.5C 799.5,197.167 799.5,199.833 799.5,202.5C 797.508,202.672 795.842,202.005 794.5,200.5C 793.961,197.834 792.628,195.667 790.5,194C 791.595,191.731 791.261,189.564 789.5,187.5C 787.851,186.352 786.351,185.019 785,183.5C 784.536,184.094 784.369,184.761 784.5,185.5C 783.655,184.329 782.989,182.995 782.5,181.5C 783.458,181.047 784.292,180.381 785,179.5C 785.667,180.833 786.333,182.167 787,183.5C 786.838,174.945 784.671,167.445 780.5,161C 781.28,159.927 781.113,158.76 780,157.5C 779.333,158.833 778.667,158.833 778,157.5C 777.74,155.382 776.74,153.716 775,152.5C 774.383,151.551 774.549,150.718 775.5,150C 772.113,146.095 769.78,141.595 768.5,136.5C 767.624,135.749 766.624,135.249 765.5,135C 766.634,133.984 766.301,133.317 764.5,133C 765.167,132.333 765.833,131.667 766.5,131C 763.604,127.888 760.937,124.555 758.5,121C 758.833,120.667 759.167,120.333 759.5,120C 755.288,115.475 751.455,110.641 748,105.5C 747.667,105.833 747.333,106.167 747,106.5C 746.517,105.552 746.351,104.552 746.5,103.5C 745.5,103.5 744.5,103.5 743.5,103.5C 743.649,102.448 743.483,101.448 743,100.5C 705.739,62.979 661.905,37.6457 611.5,24.5C 608.56,25.23 605.893,24.3967 603.5,22C 593.813,20.4327 584.313,18.266 575,15.5C 573.846,17.9574 572.512,17.9574 571,15.5C 569.703,16.7836 568.536,16.6169 567.5,15C 544.81,11.8389 522.477,9.17226 500.5,7C 473.567,6.38457 446.567,5.55124 419.5,4.5C 399.115,4.9699 378.781,3.9699 358.5,1.5C 356.705,2.26509 354.872,2.93176 353,3.5C 330.759,1.83538 308.426,0.83538 286,0.5C 284.263,1.61978 282.429,2.61978 280.5,3.5C 261.316,2.47907 242.15,3.14574 223,5.5C 200.808,5.67304 178.474,5.3397 156,4.5C 149.464,4.83605 142.964,5.50272 136.5,6.5C 135.723,8.5385 134.557,9.20517 133,8.5C 132.536,9.09442 132.369,9.76109 132.5,10.5C 131.325,10.281 130.325,10.6143 129.5,11.5C 129.957,12.2975 130.624,12.6309 131.5,12.5C 130.952,14.6264 130.285,16.6264 129.5,18.5C 128.908,15.8728 128.575,13.2062 128.5,10.5C 127.5,10.5 126.5,10.5 125.5,10.5C 123.398,17.4042 121.065,24.2376 118.5,31C 119.022,31.5613 119.355,32.228 119.5,33C 93.1417,185.23 66.3084,337.396 39,489.5C 37.1673,500.245 35.834,510.911 35,521.5C 31.3347,541.318 27.5013,561.151 23.5,581C 23.6607,582.956 23.9941,584.956 24.5,587C 22.7806,592.813 21.1139,598.646 19.5,604.5C 19.4435,608.669 19.4435,612.836 19.5,617C 18.2723,620.421 16.939,623.754 15.5,627C 16.1667,627.333 16.8333,627.667 17.5,628C 16.2986,628.903 15.4652,630.069 15,631.5C 12.6364,644.806 10.4697,658.139 8.5,671.5C 8.3812,674.258 8.71453,677.092 9.5,680C 6.96476,689.022 4.79809,698.189 3,707.5C 2.57756,709.426 1.4109,710.426 -0.5,710.5C -0.5,706.167 -0.5,701.833 -0.5,697.5C 1.70792,696.977 3.20792,695.644 4,693.5C 5.73561,677.459 7.73561,661.459 10,645.5C 10.5629,640.817 11.7295,636.317 13.5,632C 12.9781,631.439 12.6448,630.772 12.5,630C 13.2181,626.539 13.7181,623.039 14,619.5C 14.956,618.421 15.7894,617.255 16.5,616C 14.0712,615.549 13.9045,614.715 16,613.5C 16.9234,607.174 17.7567,600.841 18.5,594.5C 18.8178,593.353 19.4844,592.519 20.5,592C 19.6919,591.692 19.0253,591.192 18.5,590.5C 19.935,589.071 20.935,587.405 21.5,585.5C 20.4701,581.535 20.3035,577.535 21,573.5C 22.9983,564.181 24.9983,554.848 27,545.5C 27.5,545 28,544.5 28.5,544C 28.5894,542.284 28.2561,540.451 27.5,538.5C 28.2435,535.557 28.7435,532.557 29,529.5C 29.7504,528.874 30.5838,528.374 31.5,528C 30.3895,525.263 30.2228,522.429 31,519.5C 31.3333,521.833 31.6667,524.167 32,526.5C 32.2362,524.236 32.7362,522.069 33.5,520C 33.565,517.03 32.8984,514.03 31.5,511C 32.5381,506.816 33.7048,502.65 35,498.5C 35.2993,489.622 37.1327,481.122 40.5,473C 39.5819,468.748 39.5819,464.748 40.5,461C 42.108,452.735 44.108,444.568 46.5,436.5C 46.1667,435.833 45.8333,435.167 45.5,434.5C 47.6027,432.873 47.936,430.873 46.5,428.5C 48.6941,421.024 50.3608,413.357 51.5,405.5C 49.5462,402.713 50.2129,400.88 53.5,400C 52.374,396.256 52.2073,392.423 53,388.5C 54.9673,380.935 56.3007,373.269 57,365.5C 57.1629,363.324 57.9963,361.491 59.5,360C 58.9781,359.439 58.6448,358.772 58.5,358C 60.4389,353.875 61.1055,349.709 60.5,345.5C 68.5566,308.537 75.2233,271.204 80.5,233.5C 82.1275,229.001 83.4608,224.334 84.5,219.5C 85.5585,215.265 85.5585,211.098 84.5,207C 86.1878,204.175 87.0211,201.009 87,197.5C 87.4652,196.069 88.2986,194.903 89.5,194C 88.7626,191.775 88.7626,189.441 89.5,187C 89.3248,185.342 88.6582,184.009 87.5,183C 92.3158,181.075 93.6492,177.742 91.5,173C 92.3686,166.281 94.0353,159.781 96.5,153.5C 95.8866,148.964 96.5532,144.464 98.5,140C 98.3552,139.228 98.0219,138.561 97.5,138C 99.0406,130.939 100.207,123.772 101,116.5C 101.956,110.84 103.456,105.34 105.5,100C 105.167,99 104.833,98 104.5,97C 108.329,81.0306 111.662,65.0306 114.5,49C 114.355,48.228 114.022,47.5613 113.5,47C 114.746,40.8446 116.08,34.678 117.5,28.5C 116.612,24.1405 117.612,20.1405 120.5,16.5C 120.291,15.914 119.957,15.414 119.5,15C 121.072,11.4257 123.405,8.42574 126.5,6C 131.032,4.37827 135.699,3.37827 140.5,3C 142.063,2.24109 143.063,1.07442 143.5,-0.5 Z"/></g>
<g><path style="opacity:1" fill="#222021" d="M 447.5,-0.5 C 564.833,-0.5 682.167,-0.5 799.5,-0.5C 799.5,64.5 799.5,129.5 799.5,194.5C 797.621,195.341 795.621,195.675 793.5,195.5C 792.948,193.669 792.948,192.003 793.5,190.5C 791.613,188.112 790.946,185.612 791.5,183C 790.17,181.035 788.836,179.035 787.5,177C 787.905,176.055 788.572,175.388 789.5,175C 786.43,167.09 784.263,158.923 783,150.5C 781.927,148.453 780.761,146.453 779.5,144.5C 780.485,142.902 780.651,141.235 780,139.5C 778.701,139.966 777.201,139.966 775.5,139.5C 774.927,134.967 772.927,131.133 769.5,128C 769.833,127.667 770.167,127.333 770.5,127C 768.513,125.681 767.346,123.848 767,121.5C 765.559,120.13 763.892,119.13 762,118.5C 758.348,111.706 753.681,105.039 748,98.5C 747.333,99.8333 746.667,99.8333 746,98.5C 745.654,96.1523 744.487,94.3189 742.5,93C 737.815,90.3529 733.982,87.5195 731,84.5C 730.517,83.552 730.351,82.552 730.5,81.5C 729.325,81.719 728.325,81.3857 727.5,80.5C 723.841,76.3311 719.508,73.1644 714.5,71C 714.167,70 713.833,69 713.5,68C 707.972,65.7953 703.305,62.4619 699.5,58C 695.892,56.3485 692.226,54.8485 688.5,53.5C 686.191,51.0134 683.524,49.0134 680.5,47.5C 669.519,42.323 658.685,36.9897 648,31.5C 646.401,33.0356 644.567,33.5356 642.5,33C 640.122,32.0255 640.456,31.3589 643.5,31C 637.595,27.8408 631.262,25.8408 624.5,25C 624.833,24.6667 625.167,24.3333 625.5,24C 620.578,22.7576 615.578,21.7576 610.5,21C 604.547,18.1786 598.214,16.8453 591.5,17C 585.737,14.6523 579.904,12.4856 574,10.5C 572.604,11.3943 571.104,12.0609 569.5,12.5C 560.542,9.63478 551.375,7.96812 542,7.5C 541,7.83333 540,8.16667 539,8.5C 529.465,7.50197 520.131,6.16864 511,4.5C 510.107,5.08142 509.107,5.41476 508,5.5C 499.446,3.99958 490.946,2.49958 482.5,1C 470.659,0.830658 458.993,0.330658 447.5,-0.5 Z"/></g>
<g><path style="opacity:1" fill="#080808" d="M 479.5,12.5 C 363.5,12.5 247.5,12.5 131.5,12.5C 130.624,12.6309 129.957,12.2975 129.5,11.5C 130.325,10.6143 131.325,10.281 132.5,10.5C 133.097,11.1386 133.93,11.472 135,11.5C 138.851,10.2969 142.685,9.13027 146.5,8C 260.027,5.65878 373.693,5.65878 487.5,8C 489.053,9.09679 490.386,10.4301 491.5,12C 487.514,12.4988 483.514,12.6655 479.5,12.5 Z"/></g>
<g><path style="opacity:1" fill="#fdfdfd" d="M 131.5,12.5 C 247.5,12.5 363.5,12.5 479.5,12.5C 517.73,14.3624 555.73,19.1957 593.5,27C 638.606,36.891 679.272,55.891 715.5,84C 746.888,110.274 769.221,142.774 782.5,181.5C 782.989,182.995 783.655,184.329 784.5,185.5C 791.589,207.277 795.589,229.611 796.5,252.5C 796.5,269.5 796.5,286.5 796.5,303.5C 796.661,322.252 795.495,340.919 793,359.5C 788.455,386.062 782.955,412.395 776.5,438.5C 775.542,440.302 774.875,442.302 774.5,444.5C 757.221,509.629 727.721,568.296 686,620.5C 633.421,681.227 568.254,722.394 490.5,744C 454.254,753.686 417.587,760.186 380.5,763.5C 253.517,766.632 126.517,767.298 -0.5,765.5C -0.5,758.167 -0.5,750.833 -0.5,743.5C 0.325502,747.982 0.825502,752.649 1,757.5C 2.81239,745.856 4.47905,734.189 6,722.5C 47.4918,487.882 88.6584,253.216 129.5,18.5C 130.285,16.6264 130.952,14.6264 131.5,12.5 Z"/></g>
<g><path style="opacity:1" fill="#151415" d="M 782.5,181.5 C 769.221,142.774 746.888,110.274 715.5,84C 679.272,55.891 638.606,36.891 593.5,27C 555.73,19.1957 517.73,14.3624 479.5,12.5C 483.514,12.6655 487.514,12.4988 491.5,12C 490.386,10.4301 489.053,9.09679 487.5,8C 373.693,5.65878 260.027,5.65878 146.5,8C 142.685,9.13027 138.851,10.2969 135,11.5C 133.93,11.472 133.097,11.1386 132.5,10.5C 132.369,9.76109 132.536,9.09442 133,8.5C 134.557,9.20517 135.723,8.5385 136.5,6.5C 142.964,5.50272 149.464,4.83605 156,4.5C 178.474,5.3397 200.808,5.67304 223,5.5C 242.15,3.14574 261.316,2.47907 280.5,3.5C 282.429,2.61978 284.263,1.61978 286,0.5C 308.426,0.83538 330.759,1.83538 353,3.5C 354.872,2.93176 356.705,2.26509 358.5,1.5C 378.781,3.9699 399.115,4.9699 419.5,4.5C 446.567,5.55124 473.567,6.38457 500.5,7C 522.477,9.17226 544.81,11.8389 567.5,15C 568.536,16.6169 569.703,16.7836 571,15.5C 572.512,17.9574 573.846,17.9574 575,15.5C 584.313,18.266 593.813,20.4327 603.5,22C 605.893,24.3967 608.56,25.23 611.5,24.5C 661.905,37.6457 705.739,62.979 743,100.5C 743.483,101.448 743.649,102.448 743.5,103.5C 744.5,103.5 745.5,103.5 746.5,103.5C 746.351,104.552 746.517,105.552 747,106.5C 747.333,106.167 747.667,105.833 748,105.5C 751.455,110.641 755.288,115.475 759.5,120C 759.167,120.333 758.833,120.667 758.5,121C 760.937,124.555 763.604,127.888 766.5,131C 765.833,131.667 765.167,132.333 764.5,133C 766.301,133.317 766.634,133.984 765.5,135C 766.624,135.249 767.624,135.749 768.5,136.5C 769.78,141.595 772.113,146.095 775.5,150C 774.549,150.718 774.383,151.551 775,152.5C 776.74,153.716 777.74,155.382 778,157.5C 778.667,158.833 779.333,158.833 780,157.5C 781.113,158.76 781.28,159.927 780.5,161C 784.671,167.445 786.838,174.945 787,183.5C 786.333,182.167 785.667,180.833 785,179.5C 784.292,180.381 783.458,181.047 782.5,181.5 Z"/></g>
<g><path style="opacity:1" fill="#1d1b1c" d="M 527.5,440.5 C 527.768,442.099 527.434,443.432 526.5,444.5C 526.349,441.282 525.516,440.949 524,443.5C 523.683,441.699 523.016,441.366 522,442.5C 518.832,450.007 515.665,457.507 512.5,465C 512.833,465.333 513.167,465.667 513.5,466C 510.829,469.232 508.662,472.732 507,476.5C 507.146,480.544 505.479,483.544 502,485.5C 501.193,489.043 499.86,492.377 498,495.5C 494.825,499.19 492.158,503.19 490,507.5C 486.518,510.165 484.018,513.498 482.5,517.5C 481.448,517.351 480.448,517.517 479.5,518C 476.264,524.071 471.597,528.571 465.5,531.5C 466.228,529.488 467.062,527.488 468,525.5C 469.011,524.663 470.178,524.33 471.5,524.5C 471.281,523.325 471.614,522.325 472.5,521.5C 475.765,518.279 478.931,514.946 482,511.5C 484.11,507.578 485.943,503.578 487.5,499.5C 490.346,499.191 491.846,497.525 492,494.5C 494.5,491.667 497,488.833 499.5,486C 497.86,483.224 498.527,481.224 501.5,480C 501.167,479.667 500.833,479.333 500.5,479C 502,476.833 503.5,474.667 505,472.5C 508.885,464.532 511.718,456.199 513.5,447.5C 514.5,447.5 515.5,447.5 516.5,447.5C 516.67,446.178 516.337,445.011 515.5,444C 516.944,442.293 518.277,440.46 519.5,438.5C 516.716,436.048 517.049,434.048 520.5,432.5C 519.145,431.325 519.312,430.325 521,429.5C 520.986,423.22 522.486,417.386 525.5,412C 524.521,407.283 525.354,402.449 528,397.5C 530.045,382.326 532.878,367.326 536.5,352.5C 537.714,343.357 537.714,334.19 536.5,325C 536.09,322.425 537.09,320.758 539.5,320C 538.747,318.513 537.914,318.346 537,319.5C 536.878,311.125 537.378,302.792 538.5,294.5C 538.291,293.914 537.957,293.414 537.5,293C 538.573,291.687 539.24,290.187 539.5,288.5C 539.443,282.373 538.443,276.206 536.5,270C 536.645,269.228 536.978,268.561 537.5,268C 535.275,263.276 533.275,258.443 531.5,253.5C 533.252,250.809 532.752,250.142 530,251.5C 529.51,252.793 529.343,254.127 529.5,255.5C 528.127,255.657 526.793,255.49 525.5,255C 526.022,254.439 526.355,253.772 526.5,253C 524.983,250.157 523.483,247.323 522,244.5C 513.465,235.832 505.298,226.998 497.5,218C 494.059,216.224 490.892,214.057 488,211.5C 487.667,211.833 487.333,212.167 487,212.5C 483.082,210.904 479.415,208.904 476,206.5C 472.108,207.485 468.441,207.485 465,206.5C 457.599,203.545 449.932,201.878 442,201.5C 435.91,203.041 430.077,202.374 424.5,199.5C 413.839,199.584 403.172,199.584 392.5,199.5C 390.945,199.278 389.611,198.611 388.5,197.5C 384.721,198.689 380.888,199.689 377,200.5C 370.538,199.391 364.038,199.225 357.5,200C 356.004,202.201 355.004,204.701 354.5,207.5C 352.697,208.594 352.364,210.261 353.5,212.5C 352.703,218.837 351.87,225.171 351,231.5C 350.696,233.441 349.863,235.107 348.5,236.5C 349.002,237.716 349.335,238.883 349.5,240C 348.718,242.74 348.218,245.574 348,248.5C 345.439,250.981 344.939,253.814 346.5,257C 345.782,260.461 345.282,263.961 345,267.5C 343.913,271.79 342.747,276.123 341.5,280.5C 341.479,282.602 341.813,284.768 342.5,287C 340.922,289.482 339.589,292.149 338.5,295C 339.022,295.561 339.355,296.228 339.5,297C 336.07,309.608 334.07,322.441 333.5,335.5C 332.5,335.5 331.5,335.5 330.5,335.5C 330.723,337.342 331.057,339.175 331.5,341C 326.82,365.375 322.154,389.708 317.5,414C 317.833,414.333 318.167,414.667 318.5,415C 315.977,418.116 315.31,421.616 316.5,425.5C 315.861,428.475 315.361,431.475 315,434.5C 314.576,438.943 313.076,442.943 310.5,446.5C 311.167,447.167 311.833,447.833 312.5,448.5C 310.566,459.141 308.732,469.807 307,480.5C 306.365,481.966 305.531,483.3 304.5,484.5C 304.833,485.167 305.167,485.833 305.5,486.5C 305.113,490.053 304.113,493.386 302.5,496.5C 303.678,501.02 303.344,505.687 301.5,510.5C 300.098,510.865 299.098,511.699 298.5,513C 299.112,515.058 300.112,516.891 301.5,518.5C 298.379,527.935 296.213,537.601 295,547.5C 294.25,548.126 293.416,548.626 292.5,549C 293.308,549.308 293.975,549.808 294.5,550.5C 291.99,554.92 290.657,559.42 290.5,564C 290.605,568.139 290.939,572.306 291.5,576.5C 292.822,576.67 293.989,576.337 295,575.5C 295.333,576.167 295.667,576.833 296,577.5C 313.378,576.569 330.878,576.402 348.5,577C 349.416,577.374 350.25,577.874 351,578.5C 352.427,576.213 354.261,575.88 356.5,577.5C 357.503,575.458 358.837,575.125 360.5,576.5C 365.121,575.422 369.788,574.422 374.5,573.5C 385.829,572.624 396.663,569.624 407,564.5C 407.414,564.957 407.914,565.291 408.5,565.5C 412.011,564.466 415.011,562.632 417.5,560C 419.5,559.667 421.5,559.333 423.5,559C 430.833,555 438.167,551 445.5,547C 450.777,542.726 455.777,538.059 460.5,533C 461.793,532.51 463.127,532.343 464.5,532.5C 464.029,533.901 463.362,535.234 462.5,536.5C 431.447,561.721 396.78,575.721 358.5,578.5C 336.446,579.791 314.446,580.291 292.5,580C 288.376,577.976 286.376,574.643 286.5,570C 290.231,554.828 293.231,539.495 295.5,524C 295.415,522.893 295.081,521.893 294.5,521C 296.004,519.509 296.837,517.676 297,515.5C 297.443,509.675 298.609,504.009 300.5,498.5C 299.953,494.793 300.62,491.127 302.5,487.5C 301.366,483.77 301.366,479.937 302.5,476C 303.11,474.053 303.943,472.219 305,470.5C 307.048,459.574 309.215,448.741 311.5,438C 309.717,436.933 309.217,435.433 310,433.5C 310.333,433.833 310.667,434.167 311,434.5C 312.503,423.807 314.17,413.14 316,402.5C 316.723,398.19 317.89,394.023 319.5,390C 319.095,389.055 318.428,388.388 317.5,388C 318.167,387.667 318.833,387.333 319.5,387C 318.311,384.476 318.644,381.976 320.5,379.5C 325.154,353.774 330.154,328.774 335.5,304.5C 335.291,303.914 334.957,303.414 334.5,303C 340.68,274.085 345.847,244.919 350,215.5C 350.5,215 351,214.5 351.5,214C 350.182,208.9 350.849,204.067 353.5,199.5C 354.912,198.194 356.579,197.36 358.5,197C 368.017,196.739 377.517,196.239 387,195.5C 392.516,196.077 398.016,196.744 403.5,197.5C 428.055,195.82 452.555,198.487 477,205.5C 477.772,205.355 478.439,205.022 479,204.5C 480.204,205.471 480.704,206.471 480.5,207.5C 481.833,207.167 483.167,206.833 484.5,206.5C 486.383,208.7 488.717,210.367 491.5,211.5C 492.442,211.392 493.275,211.059 494,210.5C 507.188,218.685 518.854,228.685 529,240.5C 533.32,249.793 536.654,259.46 539,269.5C 541.289,283.306 542.789,297.139 543.5,311C 540.319,329.658 538.152,348.491 537,367.5C 534.862,377.735 532.862,388.068 531,398.5C 530.5,399 530,399.5 529.5,400C 529.621,403.697 529.621,407.364 529.5,411C 527.65,412.845 527.317,414.845 528.5,417C 526.821,418.826 525.654,420.992 525,423.5C 523.84,429.129 523.007,434.796 522.5,440.5C 524.167,440.5 525.833,440.5 527.5,440.5 Z"/></g>
<g><path style="opacity:1" fill="#222021" d="M 465.5,531.5 C 464.833,531.5 464.5,531.833 464.5,532.5C 463.127,532.343 461.793,532.51 460.5,533C 455.777,538.059 450.777,542.726 445.5,547C 438.167,551 430.833,555 423.5,559C 421.5,559.333 419.5,559.667 417.5,560C 415.011,562.632 412.011,564.466 408.5,565.5C 407.914,565.291 407.414,564.957 407,564.5C 396.663,569.624 385.829,572.624 374.5,573.5C 369.788,574.422 365.121,575.422 360.5,576.5C 358.837,575.125 357.503,575.458 356.5,577.5C 354.261,575.88 352.427,576.213 351,578.5C 350.25,577.874 349.416,577.374 348.5,577C 330.878,576.402 313.378,576.569 296,577.5C 295.667,576.833 295.333,576.167 295,575.5C 293.989,576.337 292.822,576.67 291.5,576.5C 290.939,572.306 290.605,568.139 290.5,564C 290.657,559.42 291.99,554.92 294.5,550.5C 293.975,549.808 293.308,549.308 292.5,549C 293.416,548.626 294.25,548.126 295,547.5C 296.213,537.601 298.379,527.935 301.5,518.5C 300.112,516.891 299.112,515.058 298.5,513C 299.098,511.699 300.098,510.865 301.5,510.5C 303.344,505.687 303.678,501.02 302.5,496.5C 304.113,493.386 305.113,490.053 305.5,486.5C 305.167,485.833 304.833,485.167 304.5,484.5C 305.531,483.3 306.365,481.966 307,480.5C 308.732,469.807 310.566,459.141 312.5,448.5C 311.833,447.833 311.167,447.167 310.5,446.5C 313.076,442.943 314.576,438.943 315,434.5C 315.361,431.475 315.861,428.475 316.5,425.5C 315.31,421.616 315.977,418.116 318.5,415C 318.167,414.667 317.833,414.333 317.5,414C 322.154,389.708 326.82,365.375 331.5,341C 331.057,339.175 330.723,337.342 330.5,335.5C 331.5,335.5 332.5,335.5 333.5,335.5C 334.07,322.441 336.07,309.608 339.5,297C 339.355,296.228 339.022,295.561 338.5,295C 339.589,292.149 340.922,289.482 342.5,287C 341.813,284.768 341.479,282.602 341.5,280.5C 342.747,276.123 343.913,271.79 345,267.5C 345.282,263.961 345.782,260.461 346.5,257C 344.939,253.814 345.439,250.981 348,248.5C 348.218,245.574 348.718,242.74 349.5,240C 349.335,238.883 349.002,237.716 348.5,236.5C 349.863,235.107 350.696,233.441 351,231.5C 351.87,225.171 352.703,218.837 353.5,212.5C 352.364,210.261 352.697,208.594 354.5,207.5C 355.004,204.701 356.004,202.201 357.5,200C 364.038,199.225 370.538,199.391 377,200.5C 380.888,199.689 384.721,198.689 388.5,197.5C 389.611,198.611 390.945,199.278 392.5,199.5C 403.172,199.584 413.839,199.584 424.5,199.5C 430.077,202.374 435.91,203.041 442,201.5C 449.932,201.878 457.599,203.545 465,206.5C 468.441,207.485 472.108,207.485 476,206.5C 479.415,208.904 483.082,210.904 487,212.5C 487.333,212.167 487.667,211.833 488,211.5C 490.892,214.057 494.059,216.224 497.5,218C 505.298,226.998 513.465,235.832 522,244.5C 523.483,247.323 524.983,250.157 526.5,253C 526.355,253.772 526.022,254.439 525.5,255C 526.793,255.49 528.127,255.657 529.5,255.5C 529.343,254.127 529.51,252.793 530,251.5C 532.752,250.142 533.252,250.809 531.5,253.5C 533.275,258.443 535.275,263.276 537.5,268C 536.978,268.561 536.645,269.228 536.5,270C 538.443,276.206 539.443,282.373 539.5,288.5C 539.24,290.187 538.573,291.687 537.5,293C 537.957,293.414 538.291,293.914 538.5,294.5C 537.378,302.792 536.878,311.125 537,319.5C 537.914,318.346 538.747,318.513 539.5,320C 537.09,320.758 536.09,322.425 536.5,325C 537.714,334.19 537.714,343.357 536.5,352.5C 532.878,367.326 530.045,382.326 528,397.5C 525.354,402.449 524.521,407.283 525.5,412C 522.486,417.386 520.986,423.22 521,429.5C 519.312,430.325 519.145,431.325 520.5,432.5C 517.049,434.048 516.716,436.048 519.5,438.5C 518.277,440.46 516.944,442.293 515.5,444C 516.337,445.011 516.67,446.178 516.5,447.5C 515.5,447.5 514.5,447.5 513.5,447.5C 511.718,456.199 508.885,464.532 505,472.5C 503.5,474.667 502,476.833 500.5,479C 500.833,479.333 501.167,479.667 501.5,480C 498.527,481.224 497.86,483.224 499.5,486C 497,488.833 494.5,491.667 492,494.5C 491.846,497.525 490.346,499.191 487.5,499.5C 485.943,503.578 484.11,507.578 482,511.5C 478.931,514.946 475.765,518.279 472.5,521.5C 471.614,522.325 471.281,523.325 471.5,524.5C 470.178,524.33 469.011,524.663 468,525.5C 467.062,527.488 466.228,529.488 465.5,531.5 Z"/></g>
<g><path style="opacity:1" fill="#0f0f10" d="M 799.5,202.5 C 799.5,214.167 799.5,225.833 799.5,237.5C 798.517,241.298 798.183,245.298 798.5,249.5C 797.833,250.5 797.167,251.5 796.5,252.5C 795.589,229.611 791.589,207.277 784.5,185.5C 784.369,184.761 784.536,184.094 785,183.5C 786.351,185.019 787.851,186.352 789.5,187.5C 791.261,189.564 791.595,191.731 790.5,194C 792.628,195.667 793.961,197.834 794.5,200.5C 795.842,202.005 797.508,202.672 799.5,202.5 Z"/></g>
<g><path style="opacity:1" fill="#5f5f5f" d="M 798.5,249.5 C 797.652,267.486 797.319,285.486 797.5,303.5C 797.167,303.5 796.833,303.5 796.5,303.5C 796.5,286.5 796.5,269.5 796.5,252.5C 797.167,251.5 797.833,250.5 798.5,249.5 Z"/></g>
<g><path style="opacity:1" fill="#b9b9b9" d="M 799.5,237.5 C 799.5,268.833 799.5,300.167 799.5,331.5C 798.181,322.363 797.514,313.029 797.5,303.5C 797.319,285.486 797.652,267.486 798.5,249.5C 798.183,245.298 798.517,241.298 799.5,237.5 Z"/></g>
<g><path style="opacity:1" fill="#151415" d="M 796.5,303.5 C 796.833,303.5 797.167,303.5 797.5,303.5C 797.514,313.029 798.181,322.363 799.5,331.5C 799.5,346.833 799.5,362.167 799.5,377.5C 798.518,376.859 797.518,376.193 796.5,375.5C 794.632,380.069 792.632,384.569 790.5,389C 791.059,389.725 791.392,390.558 791.5,391.5C 790.601,394.697 789.601,397.864 788.5,401C 789.205,402.422 789.539,403.755 789.5,405C 788.216,410.24 786.716,415.406 785,420.5C 784.774,424.826 783.941,428.993 782.5,433C 782.833,433.333 783.167,433.667 783.5,434C 782.227,436.799 780.227,438.633 777.5,439.5C 776.955,443.172 776.622,442.838 776.5,438.5C 782.955,412.395 788.455,386.062 793,359.5C 795.495,340.919 796.661,322.252 796.5,303.5 Z"/></g>
<g><path style="opacity:1" fill="#222021" d="M 799.5,377.5 C 799.5,518.167 799.5,658.833 799.5,799.5C 532.833,799.5 266.167,799.5 -0.5,799.5C -0.5,792.167 -0.5,784.833 -0.5,777.5C 64.2721,775.714 129.105,775.38 194,776.5C 244.076,776.582 294.076,775.915 344,774.5C 348.314,775.363 352.481,775.363 356.5,774.5C 358.382,775.093 360.215,775.76 362,776.5C 363.487,775.747 363.654,774.914 362.5,774C 363.333,773.833 364.167,773.667 365,773.5C 371.021,774.773 376.687,774.44 382,772.5C 383.711,772.439 385.044,773.106 386,774.5C 387.972,772.558 390.139,772.224 392.5,773.5C 397.447,772.717 402.447,772.217 407.5,772C 410.976,770.746 414.642,770.079 418.5,770C 420.081,769.293 421.581,768.46 423,767.5C 423.333,768.167 423.667,768.833 424,769.5C 431.512,768.477 438.845,766.81 446,764.5C 458.228,763.551 470.228,760.885 482,756.5C 483.825,756.943 485.658,757.277 487.5,757.5C 487.5,756.5 487.5,755.5 487.5,754.5C 491.182,754.665 494.848,754.499 498.5,754C 507.227,750.778 516.06,747.944 525,745.5C 534.973,741.384 544.807,737.884 554.5,735C 555.047,734.075 555.713,733.242 556.5,732.5C 557.768,733.428 559.101,733.595 560.5,733C 559.542,731.853 559.875,730.853 561.5,730C 565.463,728.746 569.129,726.913 572.5,724.5C 573.167,724.833 573.833,725.167 574.5,725.5C 576.266,721.949 578.932,720.616 582.5,721.5C 583.386,720.675 583.719,719.675 583.5,718.5C 586.004,717.361 588.67,716.694 591.5,716.5C 591.119,714.058 591.786,713.391 593.5,714.5C 595.862,712.638 598.529,711.471 601.5,711C 600.289,710.107 600.289,709.274 601.5,708.5C 603.409,707.652 605.409,707.318 607.5,707.5C 607.351,706.448 607.517,705.448 608,704.5C 610.292,705.601 611.792,704.768 612.5,702C 615.986,699.739 619.652,697.739 623.5,696C 627.463,691.663 631.463,688.163 635.5,685.5C 637.385,684.391 639.385,683.557 641.5,683C 642.337,681.989 642.67,680.822 642.5,679.5C 643.833,679.5 645.167,679.5 646.5,679.5C 646.421,678.07 646.754,676.736 647.5,675.5C 651.176,673.329 654.843,671.163 658.5,669C 668.199,656.767 678.699,645.267 690,634.5C 693.733,629.322 697.566,624.155 701.5,619C 701.167,618.667 700.833,618.333 700.5,618C 707.17,611.985 712.336,604.818 716,596.5C 717,595.833 718,595.167 719,594.5C 720.383,591.141 721.716,587.807 723,584.5C 724.356,583.62 725.856,583.286 727.5,583.5C 727.83,577.538 729.83,572.704 733.5,569C 733.167,568.667 732.833,568.333 732.5,568C 734.286,567.215 735.786,566.049 737,564.5C 740.876,558.334 744.21,552.001 747,545.5C 747.238,542.692 746.904,540.026 746,537.5C 746.667,538.167 747.333,538.833 748,539.5C 749.167,538.333 750.333,537.167 751.5,536C 751.112,534.475 751.112,532.808 751.5,531C 750.692,530.692 750.025,530.192 749.5,529.5C 750.397,529.331 751.397,528.998 752.5,528.5C 753.167,525.833 753.833,523.167 754.5,520.5C 753.371,518.471 753.871,518.137 756,519.5C 756.375,517 757.208,514.667 758.5,512.5C 757.995,511.081 756.995,510.415 755.5,510.5C 758.622,503.259 761.456,495.926 764,488.5C 764.5,487.333 765.333,486.5 766.5,486C 767.66,482.924 767.66,479.924 766.5,477C 767.931,476.535 769.097,475.701 770,474.5C 770.711,471.266 771.545,468.099 772.5,465C 772.167,464.667 771.833,464.333 771.5,464C 773.333,463.5 774.5,462.333 775,460.5C 775.729,455.979 777.063,451.646 779,447.5C 779.667,445.833 779.667,444.167 779,442.5C 777.53,443.267 776.03,443.933 774.5,444.5C 774.875,442.302 775.542,440.302 776.5,438.5C 776.622,442.838 776.955,443.172 777.5,439.5C 780.227,438.633 782.227,436.799 783.5,434C 783.167,433.667 782.833,433.333 782.5,433C 783.941,428.993 784.774,424.826 785,420.5C 786.716,415.406 788.216,410.24 789.5,405C 789.539,403.755 789.205,402.422 788.5,401C 789.601,397.864 790.601,394.697 791.5,391.5C 791.392,390.558 791.059,389.725 790.5,389C 792.632,384.569 794.632,380.069 796.5,375.5C 797.518,376.193 798.518,376.859 799.5,377.5 Z"/></g>
<g><path style="opacity:1" fill="#121112" d="M 527.5,440.5 C 525.833,440.5 524.167,440.5 522.5,440.5C 523.007,434.796 523.84,429.129 525,423.5C 525.654,420.992 526.821,418.826 528.5,417C 527.317,414.845 527.65,412.845 529.5,411C 529.621,407.364 529.621,403.697 529.5,400C 530,399.5 530.5,399 531,398.5C 532.862,388.068 534.862,377.735 537,367.5C 538.152,348.491 540.319,329.658 543.5,311C 542.789,297.139 541.289,283.306 539,269.5C 536.654,259.46 533.32,249.793 529,240.5C 518.854,228.685 507.188,218.685 494,210.5C 493.275,211.059 492.442,211.392 491.5,211.5C 488.717,210.367 486.383,208.7 484.5,206.5C 483.167,206.833 481.833,207.167 480.5,207.5C 480.704,206.471 480.204,205.471 479,204.5C 478.439,205.022 477.772,205.355 477,205.5C 452.555,198.487 428.055,195.82 403.5,197.5C 398.016,196.744 392.516,196.077 387,195.5C 377.517,196.239 368.017,196.739 358.5,197C 356.579,197.36 354.912,198.194 353.5,199.5C 350.849,204.067 350.182,208.9 351.5,214C 351,214.5 350.5,215 350,215.5C 345.847,244.919 340.68,274.085 334.5,303C 334.957,303.414 335.291,303.914 335.5,304.5C 330.154,328.774 325.154,353.774 320.5,379.5C 318.644,381.976 318.311,384.476 319.5,387C 318.833,387.333 318.167,387.667 317.5,388C 318.428,388.388 319.095,389.055 319.5,390C 317.89,394.023 316.723,398.19 316,402.5C 314.17,413.14 312.503,423.807 311,434.5C 310.667,434.167 310.333,433.833 310,433.5C 309.217,435.433 309.717,436.933 311.5,438C 309.215,448.741 307.048,459.574 305,470.5C 303.943,472.219 303.11,474.053 302.5,476C 301.366,479.937 301.366,483.77 302.5,487.5C 300.62,491.127 299.953,494.793 300.5,498.5C 298.609,504.009 297.443,509.675 297,515.5C 296.837,517.676 296.004,519.509 294.5,521C 295.081,521.893 295.415,522.893 295.5,524C 293.231,539.495 290.231,554.828 286.5,570C 286.376,574.643 288.376,577.976 292.5,580C 314.446,580.291 336.446,579.791 358.5,578.5C 396.78,575.721 431.447,561.721 462.5,536.5C 463.362,535.234 464.029,533.901 464.5,532.5C 464.5,531.833 464.833,531.5 465.5,531.5C 471.597,528.571 476.264,524.071 479.5,518C 480.448,517.517 481.448,517.351 482.5,517.5C 484.018,513.498 486.518,510.165 490,507.5C 492.158,503.19 494.825,499.19 498,495.5C 499.86,492.377 501.193,489.043 502,485.5C 505.479,483.544 507.146,480.544 507,476.5C 508.662,472.732 510.829,469.232 513.5,466C 513.167,465.667 512.833,465.333 512.5,465C 515.665,457.507 518.832,450.007 522,442.5C 523.016,441.366 523.683,441.699 524,443.5C 525.516,440.949 526.349,441.282 526.5,444.5C 515.115,482.12 495.448,514.62 467.5,542C 433.555,570.62 394.222,585.954 349.5,588C 325.502,588.5 301.502,588.667 277.5,588.5C 300.283,455.543 323.616,322.71 347.5,190C 381.574,188.73 415.574,189.73 449.5,193C 518.766,202.281 551.766,241.948 548.5,312C 547.755,346.975 543.255,381.475 535,415.5C 533.167,424.156 530.667,432.489 527.5,440.5 Z"/></g>
<g><path style="opacity:1" fill="#1d1b1c" d="M 755.5,510.5 C 756.995,510.415 757.995,511.081 758.5,512.5C 757.208,514.667 756.375,517 756,519.5C 753.871,518.137 753.371,518.471 754.5,520.5C 753.833,523.167 753.167,525.833 752.5,528.5C 751.397,528.998 750.397,529.331 749.5,529.5C 750.025,530.192 750.692,530.692 751.5,531C 751.112,532.808 751.112,534.475 751.5,536C 750.333,537.167 749.167,538.333 748,539.5C 747.333,538.833 746.667,538.167 746,537.5C 746.904,540.026 747.238,542.692 747,545.5C 744.21,552.001 740.876,558.334 737,564.5C 735.786,566.049 734.286,567.215 732.5,568C 732.833,568.333 733.167,568.667 733.5,569C 729.83,572.704 727.83,577.538 727.5,583.5C 725.856,583.286 724.356,583.62 723,584.5C 721.716,587.807 720.383,591.141 719,594.5C 718,595.167 717,595.833 716,596.5C 712.336,604.818 707.17,611.985 700.5,618C 700.833,618.333 701.167,618.667 701.5,619C 697.566,624.155 693.733,629.322 690,634.5C 678.699,645.267 668.199,656.767 658.5,669C 654.843,671.163 651.176,673.329 647.5,675.5C 646.754,676.736 646.421,678.07 646.5,679.5C 645.167,679.5 643.833,679.5 642.5,679.5C 642.67,680.822 642.337,681.989 641.5,683C 639.385,683.557 637.385,684.391 635.5,685.5C 631.463,688.163 627.463,691.663 623.5,696C 619.652,697.739 615.986,699.739 612.5,702C 611.792,704.768 610.292,705.601 608,704.5C 607.517,705.448 607.351,706.448 607.5,707.5C 605.409,707.318 603.409,707.652 601.5,708.5C 600.289,709.274 600.289,710.107 601.5,711C 598.529,711.471 595.862,712.638 593.5,714.5C 591.786,713.391 591.119,714.058 591.5,716.5C 588.67,716.694 586.004,717.361 583.5,718.5C 583.719,719.675 583.386,720.675 582.5,721.5C 578.932,720.616 576.266,721.949 574.5,725.5C 573.833,725.167 573.167,724.833 572.5,724.5C 569.129,726.913 565.463,728.746 561.5,730C 559.875,730.853 559.542,731.853 560.5,733C 559.101,733.595 557.768,733.428 556.5,732.5C 555.713,733.242 555.047,734.075 554.5,735C 544.807,737.884 534.973,741.384 525,745.5C 516.06,747.944 507.227,750.778 498.5,754C 494.848,754.499 491.182,754.665 487.5,754.5C 487.5,755.5 487.5,756.5 487.5,757.5C 485.658,757.277 483.825,756.943 482,756.5C 470.228,760.885 458.228,763.551 446,764.5C 438.845,766.81 431.512,768.477 424,769.5C 423.667,768.833 423.333,768.167 423,767.5C 421.581,768.46 420.081,769.293 418.5,770C 414.642,770.079 410.976,770.746 407.5,772C 402.447,772.217 397.447,772.717 392.5,773.5C 390.139,772.224 387.972,772.558 386,774.5C 385.044,773.106 383.711,772.439 382,772.5C 376.687,774.44 371.021,774.773 365,773.5C 364.167,773.667 363.333,773.833 362.5,774C 363.654,774.914 363.487,775.747 362,776.5C 360.215,775.76 358.382,775.093 356.5,774.5C 352.481,775.363 348.314,775.363 344,774.5C 294.076,775.915 244.076,776.582 194,776.5C 129.105,775.38 64.2721,775.714 -0.5,777.5C -0.5,776.167 -0.5,774.833 -0.5,773.5C 94.9912,773.515 190.491,773.515 286,773.5C 326.291,773.187 366.458,770.854 406.5,766.5C 411.448,768.013 416.114,767.513 420.5,765C 429.706,763.022 439.039,761.689 448.5,761C 451.512,758.983 454.678,758.483 458,759.5C 468.34,756.911 478.507,753.911 488.5,750.5C 490.368,750.946 492.201,751.279 494,751.5C 494.333,750.833 494.667,750.167 495,749.5C 496.808,749.888 498.475,749.888 500,749.5C 515.818,744.336 531.984,738.836 548.5,733C 552.383,731.381 555.883,729.215 559,726.5C 560.707,727.138 562.54,727.138 564.5,726.5C 564.351,725.448 564.517,724.448 565,723.5C 565.718,724.451 566.551,724.617 567.5,724C 566.549,723.282 566.383,722.449 567,721.5C 568.868,722.672 570.702,722.505 572.5,721C 571.167,720 571.167,719 572.5,718C 574.025,716.991 575.692,716.491 577.5,716.5C 577.5,715.5 577.5,714.5 577.5,713.5C 580.572,713.817 583.572,713.484 586.5,712.5C 585.494,711.604 585.494,710.938 586.5,710.5C 587.451,711.326 588.451,711.492 589.5,711C 588.167,710 588.167,709 589.5,708C 591.035,707.504 592.535,707.67 594,708.5C 597.145,706.046 600.645,704.046 604.5,702.5C 603.911,700.627 604.578,698.96 606.5,697.5C 606.911,698.262 607.077,699.262 607,700.5C 613.463,696.692 619.63,692.525 625.5,688C 625.167,687.667 624.833,687.333 624.5,687C 625.833,687 627.167,687 628.5,687C 627.289,686.107 627.289,685.274 628.5,684.5C 632.089,683.125 635.256,681.125 638,678.5C 638.333,678.833 638.667,679.167 639,679.5C 644.617,674.041 649.951,668.375 655,662.5C 655.333,662.833 655.667,663.167 656,663.5C 662.675,656.791 669.342,650.124 676,643.5C 676.483,642.552 676.649,641.552 676.5,640.5C 677.552,640.649 678.552,640.483 679.5,640C 680.305,638.028 681.639,636.528 683.5,635.5C 684.308,633.577 684.808,631.577 685,629.5C 685.333,629.833 685.667,630.167 686,630.5C 686.833,629 688,627.833 689.5,627C 688.167,626.333 688.167,625.667 689.5,625C 690.448,624.517 691.448,624.351 692.5,624.5C 692.351,623.448 692.517,622.448 693,621.5C 693.718,622.451 694.551,622.617 695.5,622C 695.384,620.732 695.051,619.398 694.5,618C 695.448,617.517 696.448,617.351 697.5,617.5C 697.34,615.801 697.506,614.134 698,612.5C 701.64,609.527 704.973,606.194 708,602.5C 719.126,584.938 729.792,566.938 740,548.5C 740.059,545.178 741.226,542.344 743.5,540C 743.167,539.667 742.833,539.333 742.5,539C 743.667,537.833 744.833,536.667 746,535.5C 747.206,531.961 748.706,528.628 750.5,525.5C 751.988,520.369 753.655,515.369 755.5,510.5 Z"/></g>
<g><path style="opacity:1" fill="#121111" d="M 129.5,18.5 C 88.6584,253.216 47.4918,487.882 6,722.5C 4.47905,734.189 2.81239,745.856 1,757.5C 0.825502,752.649 0.325502,747.982 -0.5,743.5C -0.5,732.5 -0.5,721.5 -0.5,710.5C 1.4109,710.426 2.57756,709.426 3,707.5C 4.79809,698.189 6.96476,689.022 9.5,680C 8.71453,677.092 8.3812,674.258 8.5,671.5C 10.4697,658.139 12.6364,644.806 15,631.5C 15.4652,630.069 16.2986,628.903 17.5,628C 16.8333,627.667 16.1667,627.333 15.5,627C 16.939,623.754 18.2723,620.421 19.5,617C 19.4435,612.836 19.4435,608.669 19.5,604.5C 21.1139,598.646 22.7806,592.813 24.5,587C 23.9941,584.956 23.6607,582.956 23.5,581C 27.5013,561.151 31.3347,541.318 35,521.5C 35.834,510.911 37.1673,500.245 39,489.5C 66.3084,337.396 93.1417,185.23 119.5,33C 119.355,32.228 119.022,31.5613 118.5,31C 121.065,24.2376 123.398,17.4042 125.5,10.5C 126.5,10.5 127.5,10.5 128.5,10.5C 128.575,13.2062 128.908,15.8728 129.5,18.5 Z"/></g>
<g><path style="opacity:1" fill="#161415" d="M 755.5,510.5 C 753.655,515.369 751.988,520.369 750.5,525.5C 748.706,528.628 747.206,531.961 746,535.5C 744.833,536.667 743.667,537.833 742.5,539C 742.833,539.333 743.167,539.667 743.5,540C 741.226,542.344 740.059,545.178 740,548.5C 729.792,566.938 719.126,584.938 708,602.5C 704.973,606.194 701.64,609.527 698,612.5C 697.506,614.134 697.34,615.801 697.5,617.5C 696.448,617.351 695.448,617.517 694.5,618C 695.051,619.398 695.384,620.732 695.5,622C 694.551,622.617 693.718,622.451 693,621.5C 692.517,622.448 692.351,623.448 692.5,624.5C 691.448,624.351 690.448,624.517 689.5,625C 688.167,625.667 688.167,626.333 689.5,627C 688,627.833 686.833,629 686,630.5C 685.667,630.167 685.333,629.833 685,629.5C 684.808,631.577 684.308,633.577 683.5,635.5C 681.639,636.528 680.305,638.028 679.5,640C 678.552,640.483 677.552,640.649 676.5,640.5C 676.649,641.552 676.483,642.552 676,643.5C 669.342,650.124 662.675,656.791 656,663.5C 655.667,663.167 655.333,662.833 655,662.5C 649.951,668.375 644.617,674.041 639,679.5C 638.667,679.167 638.333,678.833 638,678.5C 635.256,681.125 632.089,683.125 628.5,684.5C 627.289,685.274 627.289,686.107 628.5,687C 627.167,687 625.833,687 624.5,687C 624.833,687.333 625.167,687.667 625.5,688C 619.63,692.525 613.463,696.692 607,700.5C 607.077,699.262 606.911,698.262 606.5,697.5C 604.578,698.96 603.911,700.627 604.5,702.5C 600.645,704.046 597.145,706.046 594,708.5C 592.535,707.67 591.035,707.504 589.5,708C 588.167,709 588.167,710 589.5,711C 588.451,711.492 587.451,711.326 586.5,710.5C 585.494,710.938 585.494,711.604 586.5,712.5C 583.572,713.484 580.572,713.817 577.5,713.5C 577.5,714.5 577.5,715.5 577.5,716.5C 575.692,716.491 574.025,716.991 572.5,718C 571.167,719 571.167,720 572.5,721C 570.702,722.505 568.868,722.672 567,721.5C 566.383,722.449 566.549,723.282 567.5,724C 566.551,724.617 565.718,724.451 565,723.5C 564.517,724.448 564.351,725.448 564.5,726.5C 562.54,727.138 560.707,727.138 559,726.5C 555.883,729.215 552.383,731.381 548.5,733C 531.984,738.836 515.818,744.336 500,749.5C 498.475,749.888 496.808,749.888 495,749.5C 494.667,750.167 494.333,750.833 494,751.5C 492.201,751.279 490.368,750.946 488.5,750.5C 478.507,753.911 468.34,756.911 458,759.5C 454.678,758.483 451.512,758.983 448.5,761C 439.039,761.689 429.706,763.022 420.5,765C 416.114,767.513 411.448,768.013 406.5,766.5C 366.458,770.854 326.291,773.187 286,773.5C 190.491,773.515 94.9912,773.515 -0.5,773.5C -0.5,772.5 -0.5,771.5 -0.5,770.5C 115.147,773.305 230.814,773.138 346.5,770C 353.477,769.915 360.311,769.082 367,767.5C 368.231,768.108 369.564,768.441 371,768.5C 376.293,767.537 381.459,766.204 386.5,764.5C 384.604,763.534 382.604,763.201 380.5,763.5C 417.587,760.186 454.254,753.686 490.5,744C 568.254,722.394 633.421,681.227 686,620.5C 727.721,568.296 757.221,509.629 774.5,444.5C 776.03,443.933 777.53,443.267 779,442.5C 779.667,444.167 779.667,445.833 779,447.5C 777.063,451.646 775.729,455.979 775,460.5C 774.5,462.333 773.333,463.5 771.5,464C 771.833,464.333 772.167,464.667 772.5,465C 771.545,468.099 770.711,471.266 770,474.5C 769.097,475.701 767.931,476.535 766.5,477C 767.66,479.924 767.66,482.924 766.5,486C 765.333,486.5 764.5,487.333 764,488.5C 761.456,495.926 758.622,503.259 755.5,510.5 Z"/></g>
<g><path style="opacity:1" fill="#121112" d="M 380.5,763.5 C 382.604,763.201 384.604,763.534 386.5,764.5C 381.459,766.204 376.293,767.537 371,768.5C 369.564,768.441 368.231,768.108 367,767.5C 360.311,769.082 353.477,769.915 346.5,770C 230.814,773.138 115.147,773.305 -0.5,770.5C -0.5,768.833 -0.5,767.167 -0.5,765.5C 126.517,767.298 253.517,766.632 380.5,763.5 Z"/></g>
</svg>
