<?xml version="1.0" encoding="UTF-8"?>
<!DOCTYPE svg PUBLIC "-//W3C//DTD SVG 1.1//EN" "http://www.w3.org/Graphics/SVG/1.1/DTD/svg11.dtd">
<svg xmlns="http://www.w3.org/2000/svg" version="1.1" width="799px" height="799px" style="shape-rendering:geometricPrecision; text-rendering:geometricPrecision; image-rendering:optimizeQuality; fill-rule:evenodd; clip-rule:evenodd" xmlns:xlink="http://www.w3.org/1999/xlink">
<g><path style="opacity:1" fill="#222021" d="M -0.5,-0.5 C 47.5,-0.5 95.5,-0.5 143.5,-0.5C 143.063,1.07442 142.063,2.24109 140.5,3C 135.699,3.37827 131.032,4.37827 126.5,6C 123.405,8.42574 121.072,11.4257 119.5,15C 119.957,15.414 120.291,15.914 120.5,16.5C 117.612,20.1405 116.612,24.1405 117.5,28.5C 116.08,34.678 114.746,40.8446 113.5,47C 114.308,47.3076 114.975,47.8076 115.5,48.5C 112.245,54.695 110.745,61.3617 111,68.5C 108.127,78.9739 106.294,89.4739 105.5,100C 103.456,105.34 101.956,110.84 101,116.5C 99.3964,128.069 97.5631,139.569 95.5,151C 96.0585,151.725 96.3918,152.558 96.5,153.5C 94.0353,159.781 92.3686,166.281 91.5,173C 93.6492,177.742 92.3158,181.075 87.5,183C 88.6582,184.009 89.3248,185.342 89.5,187C 88.7626,189.441 88.7626,191.775 89.5,194C 88.2986,194.903 87.4652,196.069 87,197.5C 86.4565,209.889 84.2898,221.889 80.5,233.5C 80.0185,240.178 79.0185,246.678 77.5,253C 78.4837,254.82 78.317,256.32 77,257.5C 76.2019,264.853 74.7019,272.02 72.5,279C 73.0219,279.561 73.3552,280.228 73.5,281C 70.2655,297.219 67.2655,313.719 64.5,330.5C 65.6446,331.891 65.6446,333.224 64.5,334.5C 63.914,334.291 63.414,333.957 63,333.5C 61.5896,341.6 60.0896,349.6 58.5,357.5C 58.6082,358.442 58.9415,359.275 59.5,360C 57.9963,361.491 57.1629,363.324 57,365.5C 56.3007,373.269 54.9673,380.935 53,388.5C 52.2073,392.423 52.374,396.256 53.5,400C 50.2129,400.88 49.5462,402.713 51.5,405.5C 50.3608,413.357 48.6941,421.024 46.5,428.5C 47.936,430.873 47.6027,432.873 45.5,434.5C 45.8333,435.167 46.1667,435.833 46.5,436.5C 44.9689,443.252 42.9689,449.752 40.5,456C 41.4214,461.539 41.4214,467.205 40.5,473C 37.1327,481.122 35.2993,489.622 35,498.5C 33.7048,502.65 32.5381,506.816 31.5,511C 35.0282,515.885 35.1949,521.051 32,526.5C 31.6667,524.167 31.3333,521.833 31,519.5C 30.2228,522.429 30.3895,525.263 31.5,528C 30.5838,528.374 29.7504,528.874 29,529.5C 28.7435,532.557 28.2435,535.557 27.5,538.5C 28.2561,540.451 28.5894,542.284 28.5,544C 28,544.5 27.5,545 27,545.5C 25.0789,554.588 23.0789,563.588 21,572.5C 20.2911,576.868 20.4577,581.201 21.5,585.5C 20.935,587.405 19.935,589.071 18.5,590.5C 19.0253,591.192 19.6919,591.692 20.5,592C 19.4844,592.519 18.8178,593.353 18.5,594.5C 17.7437,599.984 17.0771,605.484 16.5,611C 16.3248,612.658 15.6582,613.991 14.5,615C 16.443,616.193 16.2763,617.693 14,619.5C 13.7181,623.039 13.2181,626.539 12.5,630C 12.6448,630.772 12.9781,631.439 13.5,632C 11.7295,636.317 10.5629,640.817 10,645.5C 7.73561,661.459 5.73561,677.459 4,693.5C 3.20792,695.644 1.70792,696.977 -0.5,697.5C -0.5,464.833 -0.5,232.167 -0.5,-0.5 Z"/></g>
<g><path style="opacity:1" fill="#1c1b1c" d="M 143.5,-0.5 C 244.833,-0.5 346.167,-0.5 447.5,-0.5C 458.993,0.330658 470.659,0.830658 482.5,1C 490.946,2.49958 499.446,3.99958 508,5.5C 509.107,5.41476 510.107,5.08142 511,4.5C 520.131,6.16864 529.465,7.50197 539,8.5C 540,8.16667 541,7.83333 542,7.5C 551.524,8.04697 560.857,9.71363 570,12.5C 571.812,12.5066 573.312,11.84 574.5,10.5C 575.251,11.376 575.751,12.376 576,13.5C 576.561,12.9781 577.228,12.6448 578,12.5C 582.907,12.8955 587.407,14.3955 591.5,17C 598.214,16.8453 604.547,18.1786 610.5,21C 615.601,21.632 620.601,22.632 625.5,24C 625.167,24.3333 624.833,24.6667 624.5,25C 647.602,30.8984 669.269,40.5651 689.5,54C 692.833,55.3333 696.167,56.6667 699.5,58C 703.305,62.4619 707.972,65.7953 713.5,68C 714.641,68.7412 714.641,69.5745 713.5,70.5C 718.975,72.6326 723.642,75.9659 727.5,80.5C 728.325,81.3857 729.325,81.719 730.5,81.5C 730.215,85.0379 731.882,86.8712 735.5,87C 735.167,87.3333 734.833,87.6667 734.5,88C 737.968,89.9698 741.301,92.1365 744.5,94.5C 745.452,96.0453 745.785,97.712 745.5,99.5C 746.978,99.238 748.311,99.5713 749.5,100.5C 754.764,106.302 758.931,112.302 762,118.5C 763.892,119.13 765.559,120.13 767,121.5C 767.346,123.848 768.513,125.681 770.5,127C 770.167,127.333 769.833,127.667 769.5,128C 772.927,131.133 774.927,134.967 775.5,139.5C 777.201,139.966 778.701,139.966 780,139.5C 780.651,141.235 780.485,142.902 779.5,144.5C 780.761,146.453 781.927,148.453 783,150.5C 786.096,165.344 789.596,179.344 793.5,192.5C 795.167,192.5 796.833,192.5 798.5,192.5C 798.5,196.167 798.5,199.833 798.5,203.5C 797.357,203.092 796.357,202.425 795.5,201.5C 794.288,198.698 792.621,196.198 790.5,194C 791.31,190.573 790.31,187.573 787.5,185C 788.591,182.936 788.758,180.769 788,178.5C 786.119,174.481 784.619,170.315 783.5,166C 781.855,164.968 781.522,163.801 782.5,162.5C 780.403,159.603 777.903,156.27 775,152.5C 774.383,151.551 774.549,150.718 775.5,150C 772.113,146.095 769.78,141.595 768.5,136.5C 767.624,135.749 766.624,135.249 765.5,135C 766.634,133.984 766.301,133.317 764.5,133C 765.167,132.333 765.833,131.667 766.5,131C 763.604,127.888 760.937,124.555 758.5,121C 758.833,120.667 759.167,120.333 759.5,120C 755.288,115.475 751.455,110.641 748,105.5C 747.667,105.833 747.333,106.167 747,106.5C 746.517,105.552 746.351,104.552 746.5,103.5C 745.5,103.5 744.5,103.5 743.5,103.5C 743.649,102.448 743.483,101.448 743,100.5C 709.685,66.0204 669.185,41.8538 621.5,28C 619.423,27.1931 617.589,26.0264 616,24.5C 615.667,25.1667 615.333,25.8333 615,26.5C 613.445,24.8542 611.779,24.5209 610,25.5C 607.631,24.732 605.465,23.5653 603.5,22C 593.813,20.4327 584.313,18.266 575,15.5C 573.846,17.9574 572.512,17.9574 571,15.5C 553.722,13.4007 536.222,11.0674 518.5,8.5C 516.412,9.17896 514.412,9.51229 512.5,9.5C 508.587,8.28502 504.587,7.45168 500.5,7C 473.567,6.38457 446.567,5.55124 419.5,4.5C 399.115,4.9699 378.781,3.9699 358.5,1.5C 356.705,2.26509 354.872,2.93176 353,3.5C 330.759,1.83538 308.426,0.83538 286,0.5C 284.263,1.61978 282.429,2.61978 280.5,3.5C 261.484,2.45814 242.484,3.1248 223.5,5.5C 201.11,5.66735 178.61,5.33402 156,4.5C 146.677,4.75364 137.51,5.92031 128.5,8C 123.83,13.6364 121.497,19.9698 121.5,27C 119.288,28.7012 118.621,30.7012 119.5,33C 107.259,102.683 95.2593,171.683 83.5,240C 77.116,276.31 70.4493,312.977 63.5,350C 63.9891,351.138 64.3225,352.305 64.5,353.5C 63.8826,353.611 63.3826,353.944 63,354.5C 57.514,385.582 51.8474,416.582 46,447.5C 44.6607,457.511 43.3274,467.511 42,477.5C 39.5078,488.109 37.3412,498.776 35.5,509.5C 35.8601,517.842 34.5267,526.009 31.5,534C 31.7355,534.873 32.0688,535.707 32.5,536.5C 28.9689,551.282 25.9689,566.115 23.5,581C 23.6607,582.956 23.9941,584.956 24.5,587C 22.7806,592.813 21.1139,598.646 19.5,604.5C 19.4435,608.669 19.4435,612.836 19.5,617C 18.2723,620.421 16.939,623.754 15.5,627C 17.8912,627.691 17.8912,628.691 15.5,630C 15.8333,630.333 16.1667,630.667 16.5,631C 14.53,636.244 13.03,641.744 12,647.5C 11.3728,655.594 10.2062,663.594 8.5,671.5C 8.3812,674.258 8.71453,677.092 9.5,680C 6.96476,689.022 4.79809,698.189 3,707.5C 2.57756,709.426 1.4109,710.426 -0.5,710.5C -0.5,706.167 -0.5,701.833 -0.5,697.5C 1.70792,696.977 3.20792,695.644 4,693.5C 5.73561,677.459 7.73561,661.459 10,645.5C 10.5629,640.817 11.7295,636.317 13.5,632C 12.9781,631.439 12.6448,630.772 12.5,630C 13.2181,626.539 13.7181,623.039 14,619.5C 16.2763,617.693 16.443,616.193 14.5,615C 15.6582,613.991 16.3248,612.658 16.5,611C 17.0771,605.484 17.7437,599.984 18.5,594.5C 18.8178,593.353 19.4844,592.519 20.5,592C 19.6919,591.692 19.0253,591.192 18.5,590.5C 19.935,589.071 20.935,587.405 21.5,585.5C 20.4577,581.201 20.2911,576.868 21,572.5C 23.0789,563.588 25.0789,554.588 27,545.5C 27.5,545 28,544.5 28.5,544C 28.5894,542.284 28.2561,540.451 27.5,538.5C 28.2435,535.557 28.7435,532.557 29,529.5C 29.7504,528.874 30.5838,528.374 31.5,528C 30.3895,525.263 30.2228,522.429 31,519.5C 31.3333,521.833 31.6667,524.167 32,526.5C 35.1949,521.051 35.0282,515.885 31.5,511C 32.5381,506.816 33.7048,502.65 35,498.5C 35.2993,489.622 37.1327,481.122 40.5,473C 41.4214,467.205 41.4214,461.539 40.5,456C 42.9689,449.752 44.9689,443.252 46.5,436.5C 46.1667,435.833 45.8333,435.167 45.5,434.5C 47.6027,432.873 47.936,430.873 46.5,428.5C 48.6941,421.024 50.3608,413.357 51.5,405.5C 49.5462,402.713 50.2129,400.88 53.5,400C 52.374,396.256 52.2073,392.423 53,388.5C 54.9673,380.935 56.3007,373.269 57,365.5C 57.1629,363.324 57.9963,361.491 59.5,360C 58.9415,359.275 58.6082,358.442 58.5,357.5C 60.0896,349.6 61.5896,341.6 63,333.5C 63.414,333.957 63.914,334.291 64.5,334.5C 65.6446,333.224 65.6446,331.891 64.5,330.5C 67.2655,313.719 70.2655,297.219 73.5,281C 73.3552,280.228 73.0219,279.561 72.5,279C 74.7019,272.02 76.2019,264.853 77,257.5C 78.317,256.32 78.4837,254.82 77.5,253C 79.0185,246.678 80.0185,240.178 80.5,233.5C 84.2898,221.889 86.4565,209.889 87,197.5C 87.4652,196.069 88.2986,194.903 89.5,194C 88.7626,191.775 88.7626,189.441 89.5,187C 89.3248,185.342 88.6582,184.009 87.5,183C 92.3158,181.075 93.6492,177.742 91.5,173C 92.3686,166.281 94.0353,159.781 96.5,153.5C 96.3918,152.558 96.0585,151.725 95.5,151C 97.5631,139.569 99.3964,128.069 101,116.5C 101.956,110.84 103.456,105.34 105.5,100C 106.294,89.4739 108.127,78.9739 111,68.5C 110.745,61.3617 112.245,54.695 115.5,48.5C 114.975,47.8076 114.308,47.3076 113.5,47C 114.746,40.8446 116.08,34.678 117.5,28.5C 116.612,24.1405 117.612,20.1405 120.5,16.5C 120.291,15.914 119.957,15.414 119.5,15C 121.072,11.4257 123.405,8.42574 126.5,6C 131.032,4.37827 135.699,3.37827 140.5,3C 142.063,2.24109 143.063,1.07442 143.5,-0.5 Z"/></g>
<g><path style="opacity:1" fill="#222021" d="M 447.5,-0.5 C 564.5,-0.5 681.5,-0.5 798.5,-0.5C 798.5,63.8333 798.5,128.167 798.5,192.5C 796.833,192.5 795.167,192.5 793.5,192.5C 789.596,179.344 786.096,165.344 783,150.5C 781.927,148.453 780.761,146.453 779.5,144.5C 780.485,142.902 780.651,141.235 780,139.5C 778.701,139.966 777.201,139.966 775.5,139.5C 774.927,134.967 772.927,131.133 769.5,128C 769.833,127.667 770.167,127.333 770.5,127C 768.513,125.681 767.346,123.848 767,121.5C 765.559,120.13 763.892,119.13 762,118.5C 758.931,112.302 754.764,106.302 749.5,100.5C 748.311,99.5713 746.978,99.238 745.5,99.5C 745.785,97.712 745.452,96.0453 744.5,94.5C 741.301,92.1365 737.968,89.9698 734.5,88C 734.833,87.6667 735.167,87.3333 735.5,87C 731.882,86.8712 730.215,85.0379 730.5,81.5C 729.325,81.719 728.325,81.3857 727.5,80.5C 723.642,75.9659 718.975,72.6326 713.5,70.5C 714.641,69.5745 714.641,68.7412 713.5,68C 707.972,65.7953 703.305,62.4619 699.5,58C 696.167,56.6667 692.833,55.3333 689.5,54C 669.269,40.5651 647.602,30.8984 624.5,25C 624.833,24.6667 625.167,24.3333 625.5,24C 620.601,22.632 615.601,21.632 610.5,21C 604.547,18.1786 598.214,16.8453 591.5,17C 587.407,14.3955 582.907,12.8955 578,12.5C 577.228,12.6448 576.561,12.9781 576,13.5C 575.751,12.376 575.251,11.376 574.5,10.5C 573.312,11.84 571.812,12.5066 570,12.5C 560.857,9.71363 551.524,8.04697 542,7.5C 541,7.83333 540,8.16667 539,8.5C 529.465,7.50197 520.131,6.16864 511,4.5C 510.107,5.08142 509.107,5.41476 508,5.5C 499.446,3.99958 490.946,2.49958 482.5,1C 470.659,0.830658 458.993,0.330658 447.5,-0.5 Z"/></g>
<g><path style="opacity:1" fill="#fdfdfd" d="M 131.5,12.5 C 247.5,12.5 363.5,12.5 479.5,12.5C 521.911,14.3866 563.911,20.2199 605.5,30C 658.081,42.859 702.915,68.6924 740,107.5C 775.203,149.246 794.036,197.579 796.5,252.5C 796.5,269.5 796.5,286.5 796.5,303.5C 793.385,383.836 775.052,460.503 741.5,533.5C 740.833,533.5 740.5,533.833 740.5,534.5C 688.722,641.762 605.388,711.595 490.5,744C 450.046,754.965 409.046,761.798 367.5,764.5C 244.839,766.67 122.172,767.004 -0.5,765.5C -0.5,758.167 -0.5,750.833 -0.5,743.5C 0.325502,747.982 0.825502,752.649 1,757.5C 2.81239,745.856 4.47905,734.189 6,722.5C 47.6185,487.575 88.7852,252.575 129.5,17.5C 130.309,15.9724 130.976,14.3057 131.5,12.5 Z"/></g>
<g><path style="opacity:1" fill="#151314" d="M 798.5,203.5 C 798.5,218.833 798.5,234.167 798.5,249.5C 797.833,250.5 797.167,251.5 796.5,252.5C 794.036,197.579 775.203,149.246 740,107.5C 702.915,68.6924 658.081,42.859 605.5,30C 563.911,20.2199 521.911,14.3866 479.5,12.5C 483.514,12.6655 487.514,12.4988 491.5,12C 490.386,10.4301 489.053,9.09679 487.5,8C 420.461,7.27205 353.461,6.43872 286.5,5.5C 238.168,6.57893 189.835,7.57893 141.5,8.5C 140.833,8.16667 140.167,7.83333 139.5,7.5C 136.663,10.6023 133.33,11.9356 129.5,11.5C 129.957,12.2975 130.624,12.6309 131.5,12.5C 130.976,14.3057 130.309,15.9724 129.5,17.5C 128.545,15.2901 127.045,14.9568 125,16.5C 104.95,128.824 85.2837,240.491 66,351.5C 65.7216,352.416 65.2216,353.082 64.5,353.5C 64.3225,352.305 63.9891,351.138 63.5,350C 70.4493,312.977 77.116,276.31 83.5,240C 95.2593,171.683 107.259,102.683 119.5,33C 118.621,30.7012 119.288,28.7012 121.5,27C 121.497,19.9698 123.83,13.6364 128.5,8C 137.51,5.92031 146.677,4.75364 156,4.5C 178.61,5.33402 201.11,5.66735 223.5,5.5C 242.484,3.1248 261.484,2.45814 280.5,3.5C 282.429,2.61978 284.263,1.61978 286,0.5C 308.426,0.83538 330.759,1.83538 353,3.5C 354.872,2.93176 356.705,2.26509 358.5,1.5C 378.781,3.9699 399.115,4.9699 419.5,4.5C 446.567,5.55124 473.567,6.38457 500.5,7C 504.587,7.45168 508.587,8.28502 512.5,9.5C 514.412,9.51229 516.412,9.17896 518.5,8.5C 536.222,11.0674 553.722,13.4007 571,15.5C 572.512,17.9574 573.846,17.9574 575,15.5C 584.313,18.266 593.813,20.4327 603.5,22C 605.465,23.5653 607.631,24.732 610,25.5C 611.779,24.5209 613.445,24.8542 615,26.5C 615.333,25.8333 615.667,25.1667 616,24.5C 617.589,26.0264 619.423,27.1931 621.5,28C 669.185,41.8538 709.685,66.0204 743,100.5C 743.483,101.448 743.649,102.448 743.5,103.5C 744.5,103.5 745.5,103.5 746.5,103.5C 746.351,104.552 746.517,105.552 747,106.5C 747.333,106.167 747.667,105.833 748,105.5C 751.455,110.641 755.288,115.475 759.5,120C 759.167,120.333 758.833,120.667 758.5,121C 760.937,124.555 763.604,127.888 766.5,131C 765.833,131.667 765.167,132.333 764.5,133C 766.301,133.317 766.634,133.984 765.5,135C 766.624,135.249 767.624,135.749 768.5,136.5C 769.78,141.595 772.113,146.095 775.5,150C 774.549,150.718 774.383,151.551 775,152.5C 777.903,156.27 780.403,159.603 782.5,162.5C 781.522,163.801 781.855,164.968 783.5,166C 784.619,170.315 786.119,174.481 788,178.5C 788.758,180.769 788.591,182.936 787.5,185C 790.31,187.573 791.31,190.573 790.5,194C 792.621,196.198 794.288,198.698 795.5,201.5C 796.357,202.425 797.357,203.092 798.5,203.5 Z"/></g>
<g><path style="opacity:1" fill="#080808" d="M 479.5,12.5 C 363.5,12.5 247.5,12.5 131.5,12.5C 130.624,12.6309 129.957,12.2975 129.5,11.5C 133.33,11.9356 136.663,10.6023 139.5,7.5C 140.167,7.83333 140.833,8.16667 141.5,8.5C 189.835,7.57893 238.168,6.57893 286.5,5.5C 353.461,6.43872 420.461,7.27205 487.5,8C 489.053,9.09679 490.386,10.4301 491.5,12C 487.514,12.4988 483.514,12.6655 479.5,12.5 Z"/></g>
<g><path style="opacity:1" fill="#1d1b1c" d="M 386.5,197.5 C 383.765,198.943 380.765,199.943 377.5,200.5C 370.864,199.409 364.198,199.243 357.5,200C 356.004,202.201 355.004,204.701 354.5,207.5C 352.697,208.594 352.364,210.261 353.5,212.5C 352.703,218.837 351.87,225.171 351,231.5C 350.769,233.297 349.936,234.964 348.5,236.5C 349.374,242.207 348.374,248.04 345.5,254C 345.833,255 346.167,256 346.5,257C 345.141,264.906 343.475,272.74 341.5,280.5C 341.727,282.671 342.06,284.838 342.5,287C 340.922,289.482 339.589,292.149 338.5,295C 339.022,295.561 339.355,296.228 339.5,297C 336.07,309.608 334.07,322.441 333.5,335.5C 332.5,335.5 331.5,335.5 330.5,335.5C 330.723,337.342 331.057,339.175 331.5,341C 326.822,365.37 322.155,389.703 317.5,414C 317.833,414.333 318.167,414.667 318.5,415C 316,418.163 315.334,421.663 316.5,425.5C 313.124,442.087 310.291,458.754 308,475.5C 307.884,478.932 306.717,481.932 304.5,484.5C 304.833,485.167 305.167,485.833 305.5,486.5C 305.113,490.053 304.113,493.386 302.5,496.5C 303.678,501.02 303.344,505.687 301.5,510.5C 300.098,510.865 299.098,511.699 298.5,513C 299.62,514.737 300.62,516.571 301.5,518.5C 298.379,527.935 296.213,537.601 295,547.5C 294.25,548.126 293.416,548.626 292.5,549C 293.308,549.308 293.975,549.808 294.5,550.5C 291.961,554.96 290.628,559.46 290.5,564C 290.605,568.139 290.939,572.306 291.5,576.5C 292.822,576.67 293.989,576.337 295,575.5C 295.333,576.167 295.667,576.833 296,577.5C 313.044,576.575 330.211,576.409 347.5,577C 349.408,578.935 351.242,578.769 353,576.5C 369.888,575.696 387.055,572.363 404.5,566.5C 405.705,564.862 407.038,564.529 408.5,565.5C 412.011,564.466 415.011,562.632 417.5,560C 423.983,557.942 430.316,555.276 436.5,552C 439.822,550.177 442.489,547.677 444.5,544.5C 451.115,542.375 456.449,538.542 460.5,533C 461.793,532.51 463.127,532.343 464.5,532.5C 459.402,537.159 454.402,541.992 449.5,547C 435.91,555.529 422.244,562.529 408.5,568C 397.668,571.297 386.834,574.463 376,577.5C 375.439,576.978 374.772,576.645 374,576.5C 371.205,577.185 368.372,577.685 365.5,578C 363.324,578.163 361.491,578.996 360,580.5C 359.692,579.692 359.192,579.025 358.5,578.5C 336.545,579.788 314.545,580.288 292.5,580C 288.376,577.976 286.376,574.643 286.5,570C 291.139,542.357 296.472,514.857 302.5,487.5C 301.366,483.77 301.366,479.937 302.5,476C 303.578,475.326 304.245,474.326 304.5,473C 306.837,461.268 309.17,449.601 311.5,438C 309.717,436.933 309.217,435.433 310,433.5C 310.333,433.833 310.667,434.167 311,434.5C 312.503,423.807 314.17,413.14 316,402.5C 316.723,398.19 317.89,394.023 319.5,390C 319.095,389.055 318.428,388.388 317.5,388C 318.167,387.667 318.833,387.333 319.5,387C 319.384,385.732 319.051,384.398 318.5,383C 320.725,378.41 322.225,373.577 323,368.5C 325.098,357.548 326.765,346.548 328,335.5C 328.804,332.486 329.971,329.653 331.5,327C 331.469,321.389 332.469,315.723 334.5,310C 332.853,307.804 333.187,305.971 335.5,304.5C 335.291,303.914 334.957,303.414 334.5,303C 340.68,274.085 345.847,244.919 350,215.5C 350.5,215 351,214.5 351.5,214C 350.182,208.9 350.849,204.067 353.5,199.5C 354.912,198.194 356.579,197.36 358.5,197C 367.868,196.248 377.201,196.415 386.5,197.5 Z"/></g>
<g><path style="opacity:1" fill="#222021" d="M 386.5,197.5 C 387.5,197.5 388.5,197.5 389.5,197.5C 389.962,198.88 390.962,199.547 392.5,199.5C 403.172,199.584 413.839,199.584 424.5,199.5C 429.879,202.357 435.545,203.024 441.5,201.5C 449.634,201.829 457.467,203.495 465,206.5C 468.441,207.485 472.108,207.485 476,206.5C 479.415,208.904 483.082,210.904 487,212.5C 487.333,212.167 487.667,211.833 488,211.5C 490.892,214.057 494.059,216.224 497.5,218C 504.284,226.952 511.951,235.119 520.5,242.5C 521.871,245.774 523.704,248.774 526,251.5C 526.684,252.784 526.517,253.951 525.5,255C 526.793,255.49 528.127,255.657 529.5,255.5C 529.343,254.127 529.51,252.793 530,251.5C 532.752,250.142 533.252,250.809 531.5,253.5C 533.275,258.443 535.275,263.276 537.5,268C 536.978,268.561 536.645,269.228 536.5,270C 538.443,276.206 539.443,282.373 539.5,288.5C 539.24,290.187 538.573,291.687 537.5,293C 537.957,293.414 538.291,293.914 538.5,294.5C 537.378,302.792 536.878,311.125 537,319.5C 537.914,318.346 538.747,318.513 539.5,320C 537.09,320.758 536.09,322.425 536.5,325C 537.714,334.19 537.714,343.357 536.5,352.5C 533.997,364.502 531.33,376.502 528.5,388.5C 528.977,391.249 529.31,393.749 529.5,396C 528.815,398.795 528.315,401.628 528,404.5C 527.667,402.833 527.333,401.167 527,399.5C 524.971,403.9 524.471,408.067 525.5,412C 522.486,417.386 520.986,423.22 521,429.5C 519.312,430.325 519.145,431.325 520.5,432.5C 517.049,434.048 516.716,436.048 519.5,438.5C 517.995,439.842 517.328,441.508 517.5,443.5C 512.475,443.339 510.808,445.506 512.5,450C 510.98,453.612 510.146,457.445 510,461.5C 507.294,464.591 505.627,468.258 505,472.5C 502.589,475.782 500.589,478.782 499,481.5C 499.146,486.862 496.813,491.195 492,494.5C 491.846,497.525 490.346,499.191 487.5,499.5C 485.943,503.578 484.11,507.578 482,511.5C 478.931,514.946 475.765,518.279 472.5,521.5C 471.614,522.325 471.281,523.325 471.5,524.5C 470.178,524.33 469.011,524.663 468,525.5C 467.764,527.811 466.931,529.811 465.5,531.5C 464.833,531.5 464.5,531.833 464.5,532.5C 463.127,532.343 461.793,532.51 460.5,533C 456.449,538.542 451.115,542.375 444.5,544.5C 442.489,547.677 439.822,550.177 436.5,552C 430.316,555.276 423.983,557.942 417.5,560C 415.011,562.632 412.011,564.466 408.5,565.5C 407.038,564.529 405.705,564.862 404.5,566.5C 387.055,572.363 369.888,575.696 353,576.5C 351.242,578.769 349.408,578.935 347.5,577C 330.211,576.409 313.044,576.575 296,577.5C 295.667,576.833 295.333,576.167 295,575.5C 293.989,576.337 292.822,576.67 291.5,576.5C 290.939,572.306 290.605,568.139 290.5,564C 290.628,559.46 291.961,554.96 294.5,550.5C 293.975,549.808 293.308,549.308 292.5,549C 293.416,548.626 294.25,548.126 295,547.5C 296.213,537.601 298.379,527.935 301.5,518.5C 300.62,516.571 299.62,514.737 298.5,513C 299.098,511.699 300.098,510.865 301.5,510.5C 303.344,505.687 303.678,501.02 302.5,496.5C 304.113,493.386 305.113,490.053 305.5,486.5C 305.167,485.833 304.833,485.167 304.5,484.5C 306.717,481.932 307.884,478.932 308,475.5C 310.291,458.754 313.124,442.087 316.5,425.5C 315.334,421.663 316,418.163 318.5,415C 318.167,414.667 317.833,414.333 317.5,414C 322.155,389.703 326.822,365.37 331.5,341C 331.057,339.175 330.723,337.342 330.5,335.5C 331.5,335.5 332.5,335.5 333.5,335.5C 334.07,322.441 336.07,309.608 339.5,297C 339.355,296.228 339.022,295.561 338.5,295C 339.589,292.149 340.922,289.482 342.5,287C 342.06,284.838 341.727,282.671 341.5,280.5C 343.475,272.74 345.141,264.906 346.5,257C 346.167,256 345.833,255 345.5,254C 348.374,248.04 349.374,242.207 348.5,236.5C 349.936,234.964 350.769,233.297 351,231.5C 351.87,225.171 352.703,218.837 353.5,212.5C 352.364,210.261 352.697,208.594 354.5,207.5C 355.004,204.701 356.004,202.201 357.5,200C 364.198,199.243 370.864,199.409 377.5,200.5C 380.765,199.943 383.765,198.943 386.5,197.5 Z"/></g>
<g><path style="opacity:1" fill="#1d1b1c" d="M 527.5,440.5 C 527.768,442.099 527.434,443.432 526.5,444.5C 526.5,443.5 526.5,442.5 526.5,441.5C 524.856,441.286 523.356,441.62 522,442.5C 518.823,450.043 515.656,457.543 512.5,465C 513.236,467.021 512.403,468.521 510,469.5C 508.295,473.726 506.795,478.059 505.5,482.5C 504.24,483.382 503.074,484.382 502,485.5C 499.845,492.989 496.012,499.489 490.5,505C 490.833,505.333 491.167,505.667 491.5,506C 489.957,507.878 488.124,509.378 486,510.5C 484.87,512.933 483.704,515.266 482.5,517.5C 481.448,517.351 480.448,517.517 479.5,518C 476.264,524.071 471.597,528.571 465.5,531.5C 466.931,529.811 467.764,527.811 468,525.5C 469.011,524.663 470.178,524.33 471.5,524.5C 471.281,523.325 471.614,522.325 472.5,521.5C 475.765,518.279 478.931,514.946 482,511.5C 484.11,507.578 485.943,503.578 487.5,499.5C 490.346,499.191 491.846,497.525 492,494.5C 496.813,491.195 499.146,486.862 499,481.5C 500.589,478.782 502.589,475.782 505,472.5C 505.627,468.258 507.294,464.591 510,461.5C 510.146,457.445 510.98,453.612 512.5,450C 510.808,445.506 512.475,443.339 517.5,443.5C 517.328,441.508 517.995,439.842 519.5,438.5C 516.716,436.048 517.049,434.048 520.5,432.5C 519.145,431.325 519.312,430.325 521,429.5C 520.986,423.22 522.486,417.386 525.5,412C 524.471,408.067 524.971,403.9 527,399.5C 527.333,401.167 527.667,402.833 528,404.5C 528.315,401.628 528.815,398.795 529.5,396C 529.31,393.749 528.977,391.249 528.5,388.5C 531.33,376.502 533.997,364.502 536.5,352.5C 537.714,343.357 537.714,334.19 536.5,325C 536.09,322.425 537.09,320.758 539.5,320C 538.747,318.513 537.914,318.346 537,319.5C 536.878,311.125 537.378,302.792 538.5,294.5C 538.291,293.914 537.957,293.414 537.5,293C 538.573,291.687 539.24,290.187 539.5,288.5C 539.443,282.373 538.443,276.206 536.5,270C 536.645,269.228 536.978,268.561 537.5,268C 535.275,263.276 533.275,258.443 531.5,253.5C 533.252,250.809 532.752,250.142 530,251.5C 529.51,252.793 529.343,254.127 529.5,255.5C 528.127,255.657 526.793,255.49 525.5,255C 526.517,253.951 526.684,252.784 526,251.5C 523.704,248.774 521.871,245.774 520.5,242.5C 511.951,235.119 504.284,226.952 497.5,218C 494.059,216.224 490.892,214.057 488,211.5C 487.667,211.833 487.333,212.167 487,212.5C 483.082,210.904 479.415,208.904 476,206.5C 472.108,207.485 468.441,207.485 465,206.5C 457.467,203.495 449.634,201.829 441.5,201.5C 435.545,203.024 429.879,202.357 424.5,199.5C 413.839,199.584 403.172,199.584 392.5,199.5C 390.962,199.547 389.962,198.88 389.5,197.5C 404.943,196.277 420.443,196.277 436,197.5C 449.88,199.009 463.546,201.676 477,205.5C 477.772,205.355 478.439,205.022 479,204.5C 480.204,205.471 480.704,206.471 480.5,207.5C 481.833,207.167 483.167,206.833 484.5,206.5C 488.248,210.452 492.915,212.618 498.5,213C 504.099,218.139 510.099,222.805 516.5,227C 528.765,238.349 536.265,252.516 539,269.5C 541.289,283.306 542.789,297.139 543.5,311C 540.319,329.658 538.152,348.491 537,367.5C 535.298,369.299 535.131,371.299 536.5,373.5C 533.892,381.607 532.058,389.94 531,398.5C 529.244,399.421 529.077,400.588 530.5,402C 529.998,405.197 528.998,408.197 527.5,411C 527.647,412.974 527.981,414.974 528.5,417C 526.821,418.826 525.654,420.992 525,423.5C 523.84,429.129 523.007,434.796 522.5,440.5C 524.167,440.5 525.833,440.5 527.5,440.5 Z"/></g>
<g><path style="opacity:1" fill="#131112" d="M 527.5,440.5 C 525.833,440.5 524.167,440.5 522.5,440.5C 523.007,434.796 523.84,429.129 525,423.5C 525.654,420.992 526.821,418.826 528.5,417C 527.981,414.974 527.647,412.974 527.5,411C 528.998,408.197 529.998,405.197 530.5,402C 529.077,400.588 529.244,399.421 531,398.5C 532.058,389.94 533.892,381.607 536.5,373.5C 535.131,371.299 535.298,369.299 537,367.5C 538.152,348.491 540.319,329.658 543.5,311C 542.789,297.139 541.289,283.306 539,269.5C 536.265,252.516 528.765,238.349 516.5,227C 510.099,222.805 504.099,218.139 498.5,213C 492.915,212.618 488.248,210.452 484.5,206.5C 483.167,206.833 481.833,207.167 480.5,207.5C 480.704,206.471 480.204,205.471 479,204.5C 478.439,205.022 477.772,205.355 477,205.5C 463.546,201.676 449.88,199.009 436,197.5C 420.443,196.277 404.943,196.277 389.5,197.5C 388.5,197.5 387.5,197.5 386.5,197.5C 377.201,196.415 367.868,196.248 358.5,197C 356.579,197.36 354.912,198.194 353.5,199.5C 350.849,204.067 350.182,208.9 351.5,214C 351,214.5 350.5,215 350,215.5C 345.847,244.919 340.68,274.085 334.5,303C 334.957,303.414 335.291,303.914 335.5,304.5C 333.187,305.971 332.853,307.804 334.5,310C 332.469,315.723 331.469,321.389 331.5,327C 329.971,329.653 328.804,332.486 328,335.5C 326.765,346.548 325.098,357.548 323,368.5C 322.225,373.577 320.725,378.41 318.5,383C 319.051,384.398 319.384,385.732 319.5,387C 318.833,387.333 318.167,387.667 317.5,388C 318.428,388.388 319.095,389.055 319.5,390C 317.89,394.023 316.723,398.19 316,402.5C 314.17,413.14 312.503,423.807 311,434.5C 310.667,434.167 310.333,433.833 310,433.5C 309.217,435.433 309.717,436.933 311.5,438C 309.17,449.601 306.837,461.268 304.5,473C 304.245,474.326 303.578,475.326 302.5,476C 301.366,479.937 301.366,483.77 302.5,487.5C 296.472,514.857 291.139,542.357 286.5,570C 286.376,574.643 288.376,577.976 292.5,580C 314.545,580.288 336.545,579.788 358.5,578.5C 359.192,579.025 359.692,579.692 360,580.5C 361.491,578.996 363.324,578.163 365.5,578C 368.372,577.685 371.205,577.185 374,576.5C 374.772,576.645 375.439,576.978 376,577.5C 386.834,574.463 397.668,571.297 408.5,568C 422.244,562.529 435.91,555.529 449.5,547C 454.402,541.992 459.402,537.159 464.5,532.5C 464.5,531.833 464.833,531.5 465.5,531.5C 471.597,528.571 476.264,524.071 479.5,518C 480.448,517.517 481.448,517.351 482.5,517.5C 483.704,515.266 484.87,512.933 486,510.5C 488.124,509.378 489.957,507.878 491.5,506C 491.167,505.667 490.833,505.333 490.5,505C 496.012,499.489 499.845,492.989 502,485.5C 503.074,484.382 504.24,483.382 505.5,482.5C 506.795,478.059 508.295,473.726 510,469.5C 512.403,468.521 513.236,467.021 512.5,465C 515.656,457.543 518.823,450.043 522,442.5C 523.356,441.62 524.856,441.286 526.5,441.5C 526.5,442.5 526.5,443.5 526.5,444.5C 515.115,482.12 495.448,514.62 467.5,542C 434.075,570.028 395.409,585.361 351.5,588C 326.836,588.5 302.169,588.667 277.5,588.5C 300.283,455.543 323.616,322.71 347.5,190C 381.574,188.73 415.574,189.73 449.5,193C 519.006,202.356 552.006,242.189 548.5,312.5C 547.7,347.303 543.2,381.637 535,415.5C 533.167,424.156 530.667,432.489 527.5,440.5 Z"/></g>
<g><path style="opacity:1" fill="#707070" d="M 798.5,249.5 C 798.5,272.167 798.5,294.833 798.5,317.5C 797.833,312.833 797.167,308.167 796.5,303.5C 796.5,286.5 796.5,269.5 796.5,252.5C 797.167,251.5 797.833,250.5 798.5,249.5 Z"/></g>
<g><path style="opacity:1" fill="#222021" d="M 798.5,385.5 C 798.5,523.167 798.5,660.833 798.5,798.5C 532.167,798.5 265.833,798.5 -0.5,798.5C -0.5,791.5 -0.5,784.5 -0.5,777.5C 64.2849,775.712 129.118,775.378 194,776.5C 244.213,776.58 294.38,775.913 344.5,774.5C 348.673,775.332 352.673,775.332 356.5,774.5C 358.931,776.19 361.265,776.357 363.5,775C 363.167,774.667 362.833,774.333 362.5,774C 363.333,773.833 364.167,773.667 365,773.5C 369.578,774.425 374.078,774.758 378.5,774.5C 380.89,772.239 383.557,771.906 386.5,773.5C 388.187,773.24 389.687,772.573 391,771.5C 391.308,772.308 391.808,772.975 392.5,773.5C 401.309,772.851 409.976,771.685 418.5,770C 420.081,769.293 421.581,768.46 423,767.5C 423.308,768.308 423.808,768.975 424.5,769.5C 431.819,768.522 438.985,766.855 446,764.5C 446.873,764.735 447.707,765.069 448.5,765.5C 459.942,762.908 471.275,759.908 482.5,756.5C 483.894,756.621 485.228,756.954 486.5,757.5C 487.386,756.675 487.719,755.675 487.5,754.5C 491.182,754.665 494.848,754.499 498.5,754C 505.395,751.52 512.395,749.354 519.5,747.5C 531.093,742.538 542.76,738.372 554.5,735C 555.047,734.075 555.713,733.242 556.5,732.5C 557.736,733.246 559.07,733.579 560.5,733.5C 560.33,732.178 560.663,731.011 561.5,730C 565.243,728.449 568.91,726.616 572.5,724.5C 573.167,724.833 573.833,725.167 574.5,725.5C 576.019,724.149 577.352,722.649 578.5,721C 579.899,720.405 581.232,720.572 582.5,721.5C 583.386,720.675 583.719,719.675 583.5,718.5C 586.004,717.361 588.67,716.694 591.5,716.5C 591.119,714.058 591.786,713.391 593.5,714.5C 595.862,712.638 598.529,711.471 601.5,711C 600.289,710.107 600.289,709.274 601.5,708.5C 603.409,707.652 605.409,707.318 607.5,707.5C 607.351,706.448 607.517,705.448 608,704.5C 608.718,705.451 609.551,705.617 610.5,705C 616.609,699.771 622.942,694.771 629.5,690C 631.025,688.991 632.692,688.491 634.5,688.5C 634.281,687.325 634.614,686.325 635.5,685.5C 637.642,684.399 639.808,683.399 642,682.5C 642.483,681.552 642.649,680.552 642.5,679.5C 643.833,679.5 645.167,679.5 646.5,679.5C 646.421,678.07 646.754,676.736 647.5,675.5C 651.283,673.555 654.949,671.389 658.5,669C 659.191,667.933 659.691,666.766 660,665.5C 672.427,653.095 684.094,640.762 695,628.5C 697.167,625.333 699.333,622.167 701.5,619C 701.167,618.667 700.833,618.333 700.5,618C 707.21,611.955 712.377,604.788 716,596.5C 717,595.833 718,595.167 719,594.5C 720.383,591.141 721.716,587.807 723,584.5C 724.356,583.62 725.856,583.286 727.5,583.5C 727.83,577.538 729.83,572.704 733.5,569C 733.167,568.667 732.833,568.333 732.5,568C 734.286,567.215 735.786,566.049 737,564.5C 740.44,558.104 743.773,551.771 747,545.5C 747.238,542.692 746.904,540.026 746,537.5C 746.667,538.167 747.333,538.833 748,539.5C 749.167,538.333 750.333,537.167 751.5,536C 751.112,534.475 751.112,532.808 751.5,531C 750.833,530.667 750.167,530.333 749.5,530C 750.624,529.751 751.624,529.251 752.5,528.5C 753.521,522.808 755.521,517.474 758.5,512.5C 757.995,511.081 756.995,510.415 755.5,510.5C 756.406,509.035 757.739,508.035 759.5,507.5C 760.314,505.234 760.814,502.9 761,500.5C 763.19,498.612 765.023,496.445 766.5,494C 765.185,492.605 765.519,491.605 767.5,491C 766.833,490 766.167,489 765.5,488C 766.667,487.5 767.5,486.667 768,485.5C 768.742,479.107 770.909,473.274 774.5,468C 774.043,467.586 773.709,467.086 773.5,466.5C 776.184,459.949 778.684,453.282 781,446.5C 781.25,443.15 782.083,439.983 783.5,437C 783.043,436.586 782.709,436.086 782.5,435.5C 784.446,433.021 785.946,430.354 787,427.5C 786.774,419.628 788.274,411.961 791.5,404.5C 791.231,398.201 792.064,391.867 794,385.5C 795.65,382.894 797.15,382.894 798.5,385.5 Z"/></g>
<g><path style="opacity:1" fill="#171617" d="M 796.5,303.5 C 797.167,308.167 797.833,312.833 798.5,317.5C 798.5,340.167 798.5,362.833 798.5,385.5C 797.15,382.894 795.65,382.894 794,385.5C 792.064,391.867 791.231,398.201 791.5,404.5C 788.274,411.961 786.774,419.628 787,427.5C 785.946,430.354 784.446,433.021 782.5,435.5C 782.709,436.086 783.043,436.586 783.5,437C 782.083,439.983 781.25,443.15 781,446.5C 778.684,453.282 776.184,459.949 773.5,466.5C 773.709,467.086 774.043,467.586 774.5,468C 770.909,473.274 768.742,479.107 768,485.5C 767.5,486.667 766.667,487.5 765.5,488C 766.167,489 766.833,490 767.5,491C 765.519,491.605 765.185,492.605 766.5,494C 765.023,496.445 763.19,498.612 761,500.5C 760.814,502.9 760.314,505.234 759.5,507.5C 757.739,508.035 756.406,509.035 755.5,510.5C 754.963,514.856 753.297,518.689 750.5,522C 750.833,522.333 751.167,522.667 751.5,523C 748.862,526.137 746.862,529.637 745.5,533.5C 744.3,534.292 742.967,534.292 741.5,533.5C 775.052,460.503 793.385,383.836 796.5,303.5 Z"/></g>
<g><path style="opacity:1" fill="#111010" d="M 129.5,17.5 C 88.7852,252.575 47.6185,487.575 6,722.5C 4.47905,734.189 2.81239,745.856 1,757.5C 0.825502,752.649 0.325502,747.982 -0.5,743.5C -0.5,732.5 -0.5,721.5 -0.5,710.5C 1.4109,710.426 2.57756,709.426 3,707.5C 4.79809,698.189 6.96476,689.022 9.5,680C 8.71453,677.092 8.3812,674.258 8.5,671.5C 10.2062,663.594 11.3728,655.594 12,647.5C 13.03,641.744 14.53,636.244 16.5,631C 16.1667,630.667 15.8333,630.333 15.5,630C 17.8912,628.691 17.8912,627.691 15.5,627C 16.939,623.754 18.2723,620.421 19.5,617C 19.4435,612.836 19.4435,608.669 19.5,604.5C 21.1139,598.646 22.7806,592.813 24.5,587C 23.9941,584.956 23.6607,582.956 23.5,581C 25.9689,566.115 28.9689,551.282 32.5,536.5C 32.0688,535.707 31.7355,534.873 31.5,534C 34.5267,526.009 35.8601,517.842 35.5,509.5C 37.3412,498.776 39.5078,488.109 42,477.5C 43.3274,467.511 44.6607,457.511 46,447.5C 51.8474,416.582 57.514,385.582 63,354.5C 63.3826,353.944 63.8826,353.611 64.5,353.5C 65.2216,353.082 65.7216,352.416 66,351.5C 85.2837,240.491 104.95,128.824 125,16.5C 127.045,14.9568 128.545,15.2901 129.5,17.5 Z"/></g>
<g><path style="opacity:1" fill="#1d1b1c" d="M 755.5,510.5 C 756.995,510.415 757.995,511.081 758.5,512.5C 755.521,517.474 753.521,522.808 752.5,528.5C 751.624,529.251 750.624,529.751 749.5,530C 750.167,530.333 750.833,530.667 751.5,531C 751.112,532.808 751.112,534.475 751.5,536C 750.333,537.167 749.167,538.333 748,539.5C 747.333,538.833 746.667,538.167 746,537.5C 746.904,540.026 747.238,542.692 747,545.5C 743.773,551.771 740.44,558.104 737,564.5C 735.786,566.049 734.286,567.215 732.5,568C 732.833,568.333 733.167,568.667 733.5,569C 729.83,572.704 727.83,577.538 727.5,583.5C 725.856,583.286 724.356,583.62 723,584.5C 721.716,587.807 720.383,591.141 719,594.5C 718,595.167 717,595.833 716,596.5C 712.377,604.788 707.21,611.955 700.5,618C 700.833,618.333 701.167,618.667 701.5,619C 699.333,622.167 697.167,625.333 695,628.5C 684.094,640.762 672.427,653.095 660,665.5C 659.691,666.766 659.191,667.933 658.5,669C 654.949,671.389 651.283,673.555 647.5,675.5C 646.754,676.736 646.421,678.07 646.5,679.5C 645.167,679.5 643.833,679.5 642.5,679.5C 642.649,680.552 642.483,681.552 642,682.5C 639.808,683.399 637.642,684.399 635.5,685.5C 634.614,686.325 634.281,687.325 634.5,688.5C 632.692,688.491 631.025,688.991 629.5,690C 622.942,694.771 616.609,699.771 610.5,705C 609.551,705.617 608.718,705.451 608,704.5C 607.517,705.448 607.351,706.448 607.5,707.5C 605.409,707.318 603.409,707.652 601.5,708.5C 600.289,709.274 600.289,710.107 601.5,711C 598.529,711.471 595.862,712.638 593.5,714.5C 591.786,713.391 591.119,714.058 591.5,716.5C 588.67,716.694 586.004,717.361 583.5,718.5C 583.719,719.675 583.386,720.675 582.5,721.5C 581.232,720.572 579.899,720.405 578.5,721C 577.352,722.649 576.019,724.149 574.5,725.5C 573.833,725.167 573.167,724.833 572.5,724.5C 568.91,726.616 565.243,728.449 561.5,730C 560.663,731.011 560.33,732.178 560.5,733.5C 559.07,733.579 557.736,733.246 556.5,732.5C 555.713,733.242 555.047,734.075 554.5,735C 542.76,738.372 531.093,742.538 519.5,747.5C 512.395,749.354 505.395,751.52 498.5,754C 494.848,754.499 491.182,754.665 487.5,754.5C 487.719,755.675 487.386,756.675 486.5,757.5C 485.228,756.954 483.894,756.621 482.5,756.5C 471.275,759.908 459.942,762.908 448.5,765.5C 447.707,765.069 446.873,764.735 446,764.5C 438.985,766.855 431.819,768.522 424.5,769.5C 423.808,768.975 423.308,768.308 423,767.5C 421.581,768.46 420.081,769.293 418.5,770C 409.976,771.685 401.309,772.851 392.5,773.5C 391.808,772.975 391.308,772.308 391,771.5C 389.687,772.573 388.187,773.24 386.5,773.5C 383.557,771.906 380.89,772.239 378.5,774.5C 374.078,774.758 369.578,774.425 365,773.5C 364.167,773.667 363.333,773.833 362.5,774C 362.833,774.333 363.167,774.667 363.5,775C 361.265,776.357 358.931,776.19 356.5,774.5C 352.673,775.332 348.673,775.332 344.5,774.5C 294.38,775.913 244.213,776.58 194,776.5C 129.118,775.378 64.2849,775.712 -0.5,777.5C -0.5,776.167 -0.5,774.833 -0.5,773.5C 94.9912,773.515 190.491,773.515 286,773.5C 326.285,773.073 366.452,770.74 406.5,766.5C 411.448,768.013 416.114,767.513 420.5,765C 429.706,763.022 439.039,761.689 448.5,761C 451.512,758.983 454.678,758.483 458,759.5C 466.043,756.69 474.21,754.523 482.5,753C 483.579,752.044 484.745,751.211 486,750.5C 488.562,751.087 491.228,751.421 494,751.5C 494.333,750.833 494.667,750.167 495,749.5C 496.808,749.888 498.475,749.888 500,749.5C 515.747,744.15 531.914,738.65 548.5,733C 552.383,731.381 555.883,729.215 559,726.5C 560.707,727.138 562.54,727.138 564.5,726.5C 564.351,725.448 564.517,724.448 565,723.5C 565.718,724.451 566.551,724.617 567.5,724C 566.134,721.562 566.634,721.062 569,722.5C 570.225,722.138 571.391,721.638 572.5,721C 571.167,720 571.167,719 572.5,718C 576.994,715.726 581.66,713.893 586.5,712.5C 585.494,711.604 585.494,710.938 586.5,710.5C 587.451,711.326 588.451,711.492 589.5,711C 588.167,710 588.167,709 589.5,708C 591.035,707.504 592.535,707.67 594,708.5C 597.145,706.046 600.645,704.046 604.5,702.5C 603.911,700.627 604.578,698.96 606.5,697.5C 609.109,698.589 611.609,698.255 614,696.5C 617.968,693.775 621.801,690.941 625.5,688C 625.167,687.667 624.833,687.333 624.5,687C 625.833,687 627.167,687 628.5,687C 627.289,686.107 627.289,685.274 628.5,684.5C 631.84,682.775 635.007,680.775 638,678.5C 638.333,678.833 638.667,679.167 639,679.5C 644.661,674.033 649.994,668.367 655,662.5C 655.333,662.833 655.667,663.167 656,663.5C 662.675,656.791 669.342,650.124 676,643.5C 676.483,642.552 676.649,641.552 676.5,640.5C 677.552,640.649 678.552,640.483 679.5,640C 680.305,638.028 681.639,636.528 683.5,635.5C 684.308,633.577 684.808,631.577 685,629.5C 685.333,629.833 685.667,630.167 686,630.5C 686.833,629 688,627.833 689.5,627C 688.167,626.333 688.167,625.667 689.5,625C 690.448,624.517 691.448,624.351 692.5,624.5C 692.351,623.448 692.517,622.448 693,621.5C 693.718,622.451 694.551,622.617 695.5,622C 695.384,620.732 695.051,619.398 694.5,618C 695.448,617.517 696.448,617.351 697.5,617.5C 697.34,615.801 697.506,614.134 698,612.5C 701.64,609.527 704.973,606.194 708,602.5C 719.355,584.385 730.022,566.385 740,548.5C 740.059,545.178 741.226,542.344 743.5,540C 742.576,539.15 742.576,538.15 743.5,537C 742.87,535.69 741.87,534.856 740.5,534.5C 740.5,533.833 740.833,533.5 741.5,533.5C 742.967,534.292 744.3,534.292 745.5,533.5C 746.862,529.637 748.862,526.137 751.5,523C 751.167,522.667 750.833,522.333 750.5,522C 753.297,518.689 754.963,514.856 755.5,510.5 Z"/></g>
<g><path style="opacity:1" fill="#161415" d="M 740.5,534.5 C 741.87,534.856 742.87,535.69 743.5,537C 742.576,538.15 742.576,539.15 743.5,540C 741.226,542.344 740.059,545.178 740,548.5C 730.022,566.385 719.355,584.385 708,602.5C 704.973,606.194 701.64,609.527 698,612.5C 697.506,614.134 697.34,615.801 697.5,617.5C 696.448,617.351 695.448,617.517 694.5,618C 695.051,619.398 695.384,620.732 695.5,622C 694.551,622.617 693.718,622.451 693,621.5C 692.517,622.448 692.351,623.448 692.5,624.5C 691.448,624.351 690.448,624.517 689.5,625C 688.167,625.667 688.167,626.333 689.5,627C 688,627.833 686.833,629 686,630.5C 685.667,630.167 685.333,629.833 685,629.5C 684.808,631.577 684.308,633.577 683.5,635.5C 681.639,636.528 680.305,638.028 679.5,640C 678.552,640.483 677.552,640.649 676.5,640.5C 676.649,641.552 676.483,642.552 676,643.5C 669.342,650.124 662.675,656.791 656,663.5C 655.667,663.167 655.333,662.833 655,662.5C 649.994,668.367 644.661,674.033 639,679.5C 638.667,679.167 638.333,678.833 638,678.5C 635.007,680.775 631.84,682.775 628.5,684.5C 627.289,685.274 627.289,686.107 628.5,687C 627.167,687 625.833,687 624.5,687C 624.833,687.333 625.167,687.667 625.5,688C 621.801,690.941 617.968,693.775 614,696.5C 611.609,698.255 609.109,698.589 606.5,697.5C 604.578,698.96 603.911,700.627 604.5,702.5C 600.645,704.046 597.145,706.046 594,708.5C 592.535,707.67 591.035,707.504 589.5,708C 588.167,709 588.167,710 589.5,711C 588.451,711.492 587.451,711.326 586.5,710.5C 585.494,710.938 585.494,711.604 586.5,712.5C 581.66,713.893 576.994,715.726 572.5,718C 571.167,719 571.167,720 572.5,721C 571.391,721.638 570.225,722.138 569,722.5C 566.634,721.062 566.134,721.562 567.5,724C 566.551,724.617 565.718,724.451 565,723.5C 564.517,724.448 564.351,725.448 564.5,726.5C 562.54,727.138 560.707,727.138 559,726.5C 555.883,729.215 552.383,731.381 548.5,733C 531.914,738.65 515.747,744.15 500,749.5C 498.475,749.888 496.808,749.888 495,749.5C 494.667,750.167 494.333,750.833 494,751.5C 491.228,751.421 488.562,751.087 486,750.5C 484.745,751.211 483.579,752.044 482.5,753C 474.21,754.523 466.043,756.69 458,759.5C 454.678,758.483 451.512,758.983 448.5,761C 439.039,761.689 429.706,763.022 420.5,765C 416.114,767.513 411.448,768.013 406.5,766.5C 366.452,770.74 326.285,773.073 286,773.5C 190.491,773.515 94.9912,773.515 -0.5,773.5C -0.5,772.5 -0.5,771.5 -0.5,770.5C 115.147,773.309 230.814,773.143 346.5,770C 353.477,769.915 360.311,769.082 367,767.5C 370.541,768.872 374.041,768.706 377.5,767C 369.166,766.479 368.833,765.813 376.5,765C 373.518,764.502 370.518,764.335 367.5,764.5C 409.046,761.798 450.046,754.965 490.5,744C 605.388,711.595 688.722,641.762 740.5,534.5 Z"/></g>
<g><path style="opacity:1" fill="#121111" d="M 367.5,764.5 C 370.518,764.335 373.518,764.502 376.5,765C 368.833,765.813 369.166,766.479 377.5,767C 374.041,768.706 370.541,768.872 367,767.5C 360.311,769.082 353.477,769.915 346.5,770C 230.814,773.143 115.147,773.309 -0.5,770.5C -0.5,768.833 -0.5,767.167 -0.5,765.5C 122.172,767.004 244.839,766.67 367.5,764.5 Z"/></g>
</svg>
